<?xml version="1.0" encoding="utf-8"?>
<!-- Generator: Adobe Illustrator 23.0.0, SVG Export Plug-In . SVG Version: 6.00 Build 0)  -->
<svg version="1.1"
	 id="MAPA-CHILE" xmlns:cc="http://creativecommons.org/ns#" xmlns:dc="http://purl.org/dc/elements/1.1/" xmlns:mapsvg="http://mapsvg.com" xmlns:rdf="http://www.w3.org/1999/02/22-rdf-syntax-ns#" xmlns:svg="http://www.w3.org/2000/svg"
	 xmlns="http://www.w3.org/2000/svg" xmlns:xlink="http://www.w3.org/1999/xlink" x="0px" y="0px" viewBox="0 0 141.7 708.7"
	 style="enable-background:new 0 0 141.7 708.7;" xml:space="preserve">
<style type="text/css">
	.st0{fill:#01003A;stroke:#FFFFFF;stroke-miterlimit:10;}
</style>
<path id="AISEN" class="st0" d="M49.6,473.2l0.2,0l0.5-1l-0.2-0.4l-0.9-0.2l-0.3,0.3l-0.4,0.1l-1.4-0.7l-0.8-0.9l-0.7-0.7l-1.1-0.9
	l-0.5-0.2l-0.3,0.1l-0.4,0.5l-0.3,0.4l-0.5,0.1l-0.7-0.1l-0.3-0.1l-0.3-0.2l-0.1-0.5l0.2-1l0.4-0.1l0.9,0l0.3-0.1l0.5-0.8l-1-1.5
	l-0.4-0.9l0.1-0.7l0.3-0.5l0.4-0.2l0.3,0l0.9,0.2h0.4l1.3-0.5l2.8-1.6l0.8-0.7l1.7-1.6l0.6-1.2l0.4-1.1l1.2-3.3l0.1-1.9l-0.8,0.7
	l-1.1,0.8l-1.5-1.1l-1.1-1v-0.6l-1.3-0.6l-0.9-0.3l-0.5-0.1l-0.6-0.1l-0.4-0.2l-1.4-1.5l-0.1-0.6l0.1-0.6l1-0.9l1-0.9l0-0.8l0.5-1
	l1.2-2.4l0.4,0l0.6-0.2l1.4-0.5l-0.1-0.5l0,0l0.9,0l0.3,0.2l0.9,0.2l2.8,0.5L55,439l0.5-0.7l0.6-0.6l0.5-0.3l0.7,0.3l0.1,0.8
	l1.1,1.8l0.3,0.1l0.6,0.1l0.4,0.3l0.5,0.6l0.3,0.5l0.1,0.8l2-0.2l0.2-0.8l2-1l0.5,0l1.1,0.5l0,0l0.7,1l0,0.4l-0.1,0.4l-1.3,2
	l-0.5,0.5l-0.5,1.5l0.3,0.5L65,448l0,2.2l-0.7,0.5l-0.2,0.4l0.4,0.5l0.7,0.2l2.2,0h1.2l0.9-0.1l1.1,0l2.9,0.6l0.5,0.4l0.8,1.7
	l-0.2,0.7l-0.3,0.4l-0.6,0.1l-0.6,1.4l0.1,0.5l0.1,0.6l-0.1,0.6l-0.7,1l-0.4,0.1h-0.5l-0.4-0.1l-0.4-0.2l-0.7-0.5l-0.4-0.3l-0.3-0.1
	h-0.4l-0.5,0.2l-0.8,0.4l-0.3,0.1l-0.3,0.1l-0.3-0.1l-0.3-0.1l-0.3-0.1l-0.8-0.2l-0.3,0.2l-0.3,0.4l-0.4,0.1l-1.6-0.2l-0.3-0.1
	l-0.3-0.1l-0.4-0.2l-0.4-0.1l-0.4,0.3l-0.1,0.4l0.2,2.3l1.9,0.4l1.8,0.2l0.9,0.1l2.3,0.8l0.5,0.5l0.7,1.5l2.4,3.1l0.4,1.5l-2.4,3.5
	l-2,0.9l-0.3,0l-0.3,0l-0.3,0.1l-0.6,0.2l-0.5,0.4l-0.5,2l-0.2,1.5l0.5,2.4L66,481l0.4,0.1l0.6,0.3l0.3,0.4l0.3,1.5l-0.5,0.4l-0.1,0
	l-0.3,0.3l-0.5,0.6l-0.3,0.5l-0.3,0.6l-0.4,0.4l-0.4,0.2l-0.4,0.1l-0.4,0l-0.7,0.3l1,1.1l0.5,0.2l0.5,0.2l0.3,0.5l0.1,0.5l0.2,3.3
	l0.5,1.2l0.3,1l0.1,2.4l-0.1,0.6l-0.2,0.4l-1.8,1.7l-0.5,0.2l-1,0.1l-0.3,0.3l-0.5,4.5l1.2,1.7l0.4,0.5l0.1,0.7l-0.2,1l-0.2,0.3
	l-1.9,0.9l-0.9,1.6l-1.1,1.2l-0.5,0.2l-0.5-0.2l-0.4,0l-0.5,0.2l-0.3,0.1l-0.3,0.2l-0.2,0.3l-0.1,0.6l0.3,0.3l0.5,0.3l-0.3,1.9
	l-0.1,0.5l-0.2,0.4l-0.7,1.2l-0.3,0.6l-0.4,0.9l-1.1,3.2l0,0.5l0.2,0.4l0.5,0.6l0.4,0.3l0.6,0.2l1.2,1.5l0.3,2.4l0.1,3.3l-1.9,1.2
	l-0.9,0.4l-0.9,0.5l-0.3,0.2l-0.3,0.3l-0.1,0.5l0.3,1.5l0.1,0.5l0.2,1.4l0.1,1.7v1l-0.1,0.5l-0.4,0.5l-1.7,1.7l-0.4,0.3l-0.3,0.2
	l-0.4,0.2l-0.4,0.2l-0.7,0.1l-0.6,0l-0.3,0.1l-0.5,0.2l-0.4,0.3l-0.3,0.4l-1,1.5l-1.4,3.3l0,0.5l0.1,0.2l0,0l-0.2-0.2l-4.2-3.6
	l-3.4-2.9l-4.9-4.3l0,0l0-0.2l-0.7-0.4l-0.8-0.2l-0.4,0l-0.5,0.2l-0.3,0.1l-0.3,0.1l-0.5,0l-0.8-1.1l-0.4-1.4l0.6-0.9l1.4-1.5
	l0.8-0.5l0.7,0.4l1.5,1.1l0.3-0.3l0.1-2.6l-1.3-0.4l-0.4-0.5l-0.3-0.3l-0.3-0.1l-0.8-0.1l0.4-0.4l1.3-0.3l-2.1-0.8l-1.9-1.7
	l-1.3-1.5l-1.3-1l-0.5,0l-0.4-0.2l-0.1-1l0.4-0.6l1.5-0.9l1.6,0.7l0.9,0.7l0.3,0.5l0.2,0.4l0.3,0.8l0.3,1.8l0.9,0.9l0.4-0.1
	l-1.1-2.7L29,526l-0.1-0.4l0.4-0.2l1.5-0.1l1.7,0.1l0.4,0.3l0.4,0.5l0.8,0.3l1.5,0l1.2-0.4l2.5,2.3l0,1l0.5,1.3l0.2-0.8l0.7-0.7
	l0.7,0.1l0.3,0.1l0.4,0.2l0.6,0l0.7-0.6l0.2-0.3l0.1-0.6l0-0.7l-0.2-0.5l-0.1,1.1l-0.3,0.4l-0.6,0.5l-0.3,0.1l-0.4-0.2l-1.2-0.8
	l-1.3-1.5l-0.9-1.4l-0.1-1.6h1.2l0.1,0.7l0.5,0.6l0.3,0.2l0.3,0.1l0.7,0.2l3,0.2l-0.6-0.5l-1-0.3l-0.5,0l-0.4,0l-0.5,0.1l-0.5-0.1
	l-0.6-0.5l-2.8-3.5l-0.4-1.1l0.1-0.5l0.3-0.4l0.4-0.4l0.4-0.6l-0.3-1.4l-0.7-0.8l-0.6,1.3l0.5,0.4l0.1,0.5l-0.6,3.2l-0.3,0.3
	l-0.4,0.2l-1.7,0.7l-1.1-0.2l-0.3-0.1l-0.4-0.9l-0.5-0.1l-0.7,0l-2.4-0.5l-1.1-0.3l-1.2,0.3l-0.4,0.2l-0.7,0.1l-1-0.2l-0.4-0.1
	l-1-0.5l-0.4-0.6l2-3l0.6-0.4l0.3,0l1.2,0.1l0.4,0.1l0.8,0.7l0.3,1.1l0.5,1.3l0.6,0.7l0.5,0.3l0.5,0.1l0.3-0.2l-0.4,0l-0.7-0.2
	l-0.4-0.4l-0.2-0.8l0.6-1l1.3-0.3l0.8,0.3h0.4l0.6-0.3l-0.2-1.7l-1,0.5l-0.5,0.5l-1.7,0.4l-0.3-0.1l-3-3.2l-0.2-0.4l0.8-1.4l1.5-1.5
	l0.3-0.6l0.2-0.5l0.2-0.5l1.8-0.3l0.3,0.2l0.1,0.6l0,0.7l0.7,1.4l0.1,0.1l-0.1-0.3l-0.4-1.3v-0.5l0.1-0.7l0.2-0.3l1-1l1.5-2.4
	l-1.1-1.1L33,504l-0.3,0l-0.3,0.1l-0.4,0.3l-0.4-0.1l-1.5-2.4l-0.3-1.2l0-0.5l-1-0.4l-4,0.4l0,1.2l0.4-0.1l0.6,0l1.6,0.5l-0.2,0.6
	l-0.4,0.3l-0.4,0l-0.9-0.1l-1.1-0.5l-3.4-1.6l-1.7-0.9l-1-1.9l0-0.6l0.2-0.5l0.8-1l1-1l-0.1-1.4l-0.3,0.5l-0.2,0.7l-1.4,1.5
	l-0.5,0.5l-1,0.6l-2.3,0.7l-0.6-0.1l-0.6,0l-1,0.3l-0.9,0.5l-0.4,0.3l-0.8,1.3l0.3,0.3l0.7-0.6l1.6-1.1l0.4,0l0.4,0.2l1.1,3.4
	l-0.1,0.5l-0.9,0.6l-0.8,0.3l-0.3,0.1l-0.1,0l-0.1,0l-0.9-0.3l-1-1.3l-1-1.8l-0.1-1.4l0.2-1.9l0.9-1.3l0.3,0l0.4,0l0.5,0.1l0.7-0.4
	l1.8-1.6l-0.1-0.7l0.6-0.8l0.3-0.3l1-0.5l0.6,0.6l0,0.3l0.1-1.2l0.2-1l1.6-1.7l0.6-0.1l1.3,0l1.9-2.1l0.5-1.1l0.9-2.7l0.5-1.7
	l0.2-0.3l3.1-0.4l1.3-0.3l0.5,0.2l0.3,0.7l0.7-0.5l1.5-0.2l0.3,0.2l0.4,0.5l0.7,2.3l-0.4,2.1l-0.2,0.6l-0.3,0.6l-0.3,0.3l-0.2,0.2
	l0.3,0l0.9-0.7l0.3-1.1l0-0.4l-0.1-0.5l0.2-0.4l1.1,1.1l0.1,0.4l0,0.6l-0.2,0.5l-0.2,0.3l-0.4,0.4l-0.7,0.6l-0.7,0.4l-0.9,0.4
	l-1.7,0.5l-0.4,0l-0.4-0.2l-0.6-0.5l-0.3-0.3l-0.6-0.4l1.2,1.2l0.3,0.3l0.3,0.2l0.4,0l1.4-0.4l1.1-0.3l0.5-0.3l0.7-0.4l0.3-0.1
	l0.6,1.9l1.5,1l0.4,0.2l0.1,0l0.1-0.2l-0.4-0.6l-0.4-0.2l-0.5-0.3l-1.1-1.4l0.5-1.1l0.3-0.3l1-0.1l1.9,2.1l-0.1,1.1l-0.1,0.8
	l-0.2,0.6l-0.2,0.5l-1,1.3l-0.5,0.5l-1.2,1.8l1.2,0.9l0.5,0l0.4-0.2l0.2-0.3l0.8-1.7l0.2-0.5l0.3-1.1l2.4-3l0.6-1.7l1.5-2.4
	l-0.3-0.2l-1.4,1.9l-0.6,1l-0.3,0.7l-0.4,0.9l-0.4,0.5l-0.5,0.2l0-0.9L38,489l0.5-1l0.2-0.8l0.2-0.9l0-0.7l-0.4-1.2l-0.3-0.9L40,480
	l1.4-1.7l0.3-0.3l0.5-0.4l0.4-0.2l0.3,0h0.7l0.8,0.1l0.5-0.1l0.3-0.3l-2-0.7l-0.5,0.1l-0.6,0.2l-0.5,0.4l-0.4,0.8l-0.2,0.3l-1.1,1.1
	l-0.3,0.1l0.1-1.9l0.8-4.7l1.7-1.6l1.5-1.1l1.1-0.5l0.4,0.4l0.1,0.6l0.4,0.5l0.6,0.5l1.3,0.9l0.9,0.3L49.6,473.2L49.6,473.2z
	 M49.7,458.4L49.7,458.4l-0.8,0.6l-0.7,0.4l-1,1l-0.2,0.3L47,461l-0.1,0.1l-1,0.8l-0.9,0.4l-0.4,0.1l-0.5,0.1l-0.2,0l-0.2-0.1
	l-1.5-1.8l-0.1-0.2l0-0.2l0.1-0.2l1.4-0.5l0.3,0.1l0.2,0.1l0.2,0.3l0.6-0.1l0.1-0.1l-0.4-0.4l-0.9-0.4l-0.6,0.4l-0.2,0.2l-0.2,0.1
	l-0.2,0l-0.2-0.1l-0.2-0.2l-0.5-1l-0.2-0.5l-0.3-1.3l0.6-0.8l0.1-0.1l0.4-0.1l0.2,0l1.4-0.3l0.2-0.9l0.1-0.8l0-0.3l0-0.2l0.3-0.8
	l0.2-0.2l0.2-0.1l1.8-0.6l1.3-0.3l0.2,0l1.7,1.4l1.1,0.4l0.3,0.2l0.6,1.1l0.1,0.2l0,0.2l-1.1,1.6l-0.1,0.1l-0.2,0.1l-0.3,0.1
	l-0.9-0.1l-0.2-0.1l-0.2-0.2l-0.8-0.3l0,0.3l0.1,0.2l0.9,0.6l0.4,0.1l0.6,0.1l0.1,0.3l-0.2,0.4l-0.2,0.3L49.7,458.4L49.7,458.4z
	 M16.5,540.4l-0.2,0.1l-0.3,0.1l-0.6-1.5l-0.2-1l-0.3-2l0-0.3l0.3-0.9l-1.4-0.9l-0.9,0.5l-0.2,0.1l-0.3,0.1H12l-0.2,0l-0.3-0.2
	l-0.1-0.2l0-0.3l0.1-0.3l0.3-0.2l0.3-0.2l0.4-0.2l0.5,0l0.4,0l0.2-0.1l0.3-0.2l0.2-0.2l0.2-0.4l0.2-0.3l-0.2-0.1l-0.7,0.4l-1.9,0.2
	l-0.2-0.3l-0.5-4.6l0.1-0.2l0.6-0.8l0.4-0.3l2.1-0.6l0.3,0l0.2,0.2l0.9,2.7l0.1,0.4l0.1,1.3l0.5,1.6l0.3,0.9l0.4,0.5l0.5,0.9
	l0.7,2.1l0.2,1.8l-0.1,0.4l-0.1,0.2L16.5,540.4L16.5,540.4z M24.8,540.2L23,539h-0.3l-0.2,0.1l-0.2,0.1l-0.3,0l-1.7-0.3l-0.9-0.5
	l-0.2-0.2l-0.1-0.2l-0.2-1.6l0.1-0.4l0.1-0.3l0.1-0.2l1-1.1l0.2-0.1l0.9-0.1l0.2,0l0.1,0.3L22,535l0.1,0.3l0.1,0.2l0.6,0.5l0.7-0.8
	l0-0.2l-0.2-0.3l-0.1-0.1l-0.4-0.1l-0.5-0.9l-0.1-0.3l-0.2-0.8v-0.3l0-0.3l0.6-3.2l0.1-0.3l0.1-0.2l0.2-0.2l0.2,0.1l0.3,0.4l0.1,0.2
	l0.1,0.3v0.4l0.1,0.8l0.2,1.5l1.3,2.3l-0.3,1v1.2l0.1,1l0.1,0.4l0.7,1l0.2,0l0.1-0.2v-0.2l-0.1-0.2l0-0.3l0.2-0.1l0.1,0.1l0.2,0.1
	l0.1,0.2l0,0.3l-0.1,0.6l-0.1,0.4l-0.1,0.2l-0.2,0.1l-0.7,0.5l-0.3,0.1l-0.3,0L24.8,540.2L24.8,540.2z M19,534.9l-0.2,0l-0.2-0.1
	l-2-4.5l-0.9-2.7l0-0.6l0.5,0l0.9,0.2l1.7,0.4l0.4,0.2l1.2,1l1.6,0.4l0.2,0.2l0,0.3l0,0.4l-0.5,3.1l-0.1,0.2l-0.2,0.1l-0.4,0
	l-0.7,0.5l-0.3,0.3l-0.4,0.3L19,534.9L19,534.9z M37.4,469.4l-0.9-0.3l-0.5-0.6l-0.6,0l-0.8,0.2l-0.3,0l-0.5,0l-0.2-0.1l-0.2-0.1
	l-0.1-0.3l-1.3-1.5l-0.4,0.2l-1,0.2l-0.2,0l-0.1-0.1l-0.1-0.5l-0.1-0.6l0-0.2l0.1-0.4l0.2-0.3l0.5-0.5l0.2-0.2l0.3-0.1l0.3,0
	l0.1,0.1l0.3,0.1l0.6-0.1l1.1-0.2l0.3-0.1l0.5-0.3l0.2-0.1l0.2,0l0.3,0l0.3,0.1l0.1,0.1l0.9,0.7l0.1,0.1l0.1,0.1l0.1,0.2l0.6,0.9
	l0.2,0.6l0,0.2l0,0.3l0,0.5L37.4,469.4L37.4,469.4z M29.1,525.1l-0.5-0.3l-1.8-0.7l-0.3-0.2l0-0.2l1.1-1.3l0.1-0.2l0.3-0.2l1.4-0.7
	l0.3-0.1l3.2,1.1l1.7,0.7l0.4,0l0.2-0.1l0.4-0.4l0.2-0.1l0.1,0l0.2,0.1l0.2,0.3l0.1,0.2l-0.1,0.3l-0.3,0.8l-0.3,0.2l-0.5,0.2l-0.2,0
	l-0.5,0l-1.5,0l-0.3,0l-0.3-0.1l-0.2-0.1l-0.3-0.1l-0.2,0l-2.3,0.7L29.1,525.1L29.1,525.1z M29.9,459.8l-0.3,0l-0.4-0.1l-0.3-0.2
	l-0.1-0.1l-0.2-0.2l-0.3-0.4l-0.6-1.2l0-0.3l0-0.9l0.2-0.2l1.9-0.5l0.2,0l1.3,0l2.3,0.1l0.5,0.2l0.2,0.1l0.3,0.2l0.1,0.1l0.2,0.2
	l0.4,0.6l0.1,0.3l-2,0.5l-2.4,1.1l-0.4,0.2L29.9,459.8L29.9,459.8z M18.4,485.9l-0.2-0.2l-0.1-0.2l-0.2-0.6l0.1-0.2l0.2-0.1l1.7-0.5
	l0.2,0.1l-0.1-0.4l-0.4-0.1l-0.4,0.1l-0.5,0l-0.2-0.1l-0.1-0.3l-0.5-1.8l0.1-0.2l0.2-0.2l0.3-0.1l1.3,0.5l0.2,0.1l0.2,0.2l0.9-0.5
	l1.2-1.1l0.7-0.4l0.3,0l0.1,0.3v0.3l-0.1,0.3l-0.7,2.8l-0.1,0.2l-0.1,0.2l-0.4,0.5l-1.5,1.5l-0.2,0.1l-1,0.1l-0.3,0l-0.5-0.2
	L18.4,485.9L18.4,485.9z M10.8,540.2l0.4-0.5l0.4,0.1l0.4-0.1l0.2,0l0.4-0.2l0.2-0.1l0.3-0.3l0.1-0.3l-0.1-0.1l-0.3,0.3l-0.2,0.2
	l-0.2,0.1l-0.3,0h-0.2l-1-0.1l-0.7-0.3L9.9,538l0.3-2.3l0.4-0.8l0.3-0.1l3-0.3l0.7,0.1l0.1,0.3l0.3,3l-0.1,0.2l-0.7,0.6l-0.3,0.3
	l-0.9,0.7l-0.4,0.3l-0.2,0.1l-0.2,0.1l-0.4,0l-0.5,0l-0.3-0.1L10.8,540.2L10.8,540.2z M27.1,479.4l-0.2-0.1l-0.2-0.3l-0.1-0.4l0-0.3
	l0.1-0.2l0.3-0.4l0.3-0.4l0-0.8l-0.1-0.9l-0.1-0.6v-0.3l0-0.3l0.1-0.4l0.1-0.2l0.1-0.4l0.2-0.4l0.2-0.4l0.3-0.1l1.3,0.6l0.2,0.2
	l0.1,0.2l0.3,0.6l0.1,0.4l0.3,1l0.2,0.8l-0.3,0.8l-0.1,0.2l-2.2,1.7l-0.2,0.1L27.1,479.4L27.1,479.4z M21,526.9l-0.2,0l-0.8-0.2
	l-0.9-0.4l-0.2-0.1l-0.1-0.3l0.2-0.4l-0.3-0.3l-0.4-0.1l-0.4,0l-0.3,0.2l-0.3,0.4l-0.2,0.4l-0.2,0.1l-0.4,0.1l-0.5,0l-0.3-0.1
	l-0.2-0.2l0.8-1.2l0.4-0.3l0.2-0.1l1-0.3l0.5-0.1l0.3,0l1.3-0.9l1-1.4l0.8-0.4l0.2,0.2l0.1,0.7l0,0.3l0,0.8l0,3l-0.8,0.6l-0.1,0.1
	L21,526.9L21,526.9z M38.6,479l-0.1,0l-0.3-0.1l-1.5-1.7l-0.1-2.1v-0.3l0-0.3l0.1-0.2l0.1-0.3l0.8-1.1l0.1-0.1l0.3,0l0.3,0l1,0.3
	l0.1,0.2l0,0.7l-0.5,3.9l-0.3,1.1L38.6,479L38.6,479z M29.7,464.3l-0.1,0l-1-0.3l-0.1-0.2l0.2-0.5l2.1-2.1L31,461l0.3-0.1l0.3,0
	l2.6,0.7l0.2,0.2l0.5,0.7l0.1,0.2l-0.2,0.2l-0.5,0.3l-0.3,0.1l-0.9,0.3l-0.2,0l-1.1,0l-0.7-0.1l-0.3,0.1l-0.2,0.1L29.7,464.3
	L29.7,464.3z M37.2,458.5l-0.2,0l-0.9-1.3l0-1.9l0.1-0.3l0.2-0.2l1.4-0.3l0.2,0l0.2,0.1l0.2,0.2l0.5,1.1l0.5,1.7l0,0.2l-0.2,0.1
	l-1.5,0.5L37.2,458.5L37.2,458.5z M33.7,442.6l-0.4-0.4l-1.4-0.4l-0.7-0.3l-0.1-0.2l0.3-1.1l0.2-0.2l0.2-0.1l0.9,0.1l0.2,0.1
	l1.9-0.3l0.8-0.7l1,1.1l0.3,0.9l0.1,0.4l-1.3,0.1l-0.2-0.2l-0.2-0.1l-0.1-0.2l0.2-0.2l0.1-0.2l-0.2-0.1l-0.4,0l-0.8,0.2l-0.1,0.4
	l0.2,0.2l0,0.2l0.4,0.2l-0.5,0.6l-0.2,0.1L33.7,442.6L33.7,442.6z M33.6,470.8l-0.2,0l-1.7-0.6l-0.1-0.2l-0.3-1.3l0.3-0.4l0.9-0.4
	l0.2,0l0.2,0.1l0.1,0.1l0.2,0.5l0.1,0.1l0.2,0.1l0.2,0.1l0.3,0l0.5,0l0.3,0l0.5-0.1l0.4-0.1l0.4,0.1l0.2,0.1l0.1,0.1l0.2,0.4
	l0.1,0.4l0,0.4l-0.1,0.3l-0.1,0.1l-1,0l-1.2,0L33.6,470.8L33.6,470.8z M26.1,532.7l-0.1-0.1l-0.9-1.9l0-0.2l0-0.4l0-0.5l0-0.8
	l0.5-0.7h0.2l0.3,0.2l0.5,0.4l1.5,1.6l0.3,0.7l-0.6,0.8l-0.2,0.1L26.1,532.7L26.1,532.7z M36.8,488.2l-0.5-0.4l-0.1-0.1l-1.7-2.3
	l0-0.3l0.2-0.5l0.2-0.2l0.2-0.1l0.7,0l0.3,0l1.3,0.6l0.6,0.5l0.2,0.2l0.1,0.4l-0.1,0.4l-0.8,1.5l-0.2,0.4l-0.2,0.1L36.8,488.2
	L36.8,488.2z M27.9,454.7l-1.6-0.4l-0.3-0.2l-0.1-0.2l-0.2-0.7l0.1-0.3l0.3-0.3l0.2-0.1l2.7-0.8l0.7,0.2l0.5,0.8l0.2,0.3l0,0.2
	l-0.3,0.1l-1.3,0.3l-1,0.2l-0.2,0.1L27.9,454.7L27.9,454.7z M33.8,478.3h-0.1l-0.8-0.1l-0.2-0.2l-0.4-1.1l-0.3-0.7l0-0.4l0.7-0.9
	l0.5-0.3l0.2,0l0.7,0.4l0.7,0.7l0.3,0.6l0,0.3L35,477l-0.3,0.8L33.8,478.3L33.8,478.3z M10.7,542.5l-0.1,0l-0.2-0.1l-0.2-0.3
	l-0.1-0.3l0.1-1.3l0.3,0l0.6,0.3l0.6,0.2l0.3,0l0.2,0l0.2-0.1l0.9-0.8l1.1-1l0.7,0.5l0.2,0.6l0.1,0.2l0,0.3l-0.3,0.4l-0.2,0.2
	l-2.5,0.9L10.7,542.5L10.7,542.5z M31.6,475.3l-0.1-0.1l0-0.2l0.1-0.5l0.1-0.3l0.1-0.2l0.2-0.2l0-0.4l0.1-0.3l0.2-0.3l0.1-0.3
	l0.1-0.2l0.2-0.2l0.2,0l0.2,0.1l0.2,0.1l0.3,0l0.3,0l0.2,0.1l0.2,0.1l0.1,0.1l0.4,0.2l0.2,0.2l0.2,0.1l0.2,0l0.4-0.3l0.2-0.1
	l0.2,0.2l0.1,0.3l-0.1,0.4L36,474l-0.1,0.3l-0.3,0.4l-0.1,0.4l-0.2,0l-0.3-0.2l-0.1,0l-0.2-0.1l-0.3-0.4l-0.3-0.1l-0.3,0l-0.5-0.2
	l-0.5-0.1l-0.1,0l-0.2,0.2l-0.3,0.1l-0.2,0.2l-0.1,0.4l-0.1,0.2L31.6,475.3L31.6,475.3z M31.2,508.1L31,508l-0.6-0.8l0-0.3l0-0.3
	l0.5-1.4L31,505l0.1-0.1l0.2,0l1.9,0.1l0.8,0.6l-1.2,1.6l-0.3,0.3l-0.2,0.1l-0.2,0.1l-0.7,0.3L31.2,508.1z M35.8,462.8l-0.5-0.5
	l-0.5-0.5l-0.1-0.3l-0.1-0.2l-0.1-1.5l0.1-0.3l0.2-0.3l0.2-0.1l0.2,0l0.3,0l0.3,0.1l0.1,0.2l0.9,2.3l0.1,0.6l-0.1,0.3l-0.1,0.2
	l-0.2,0.2l-0.3,0l-0.2,0L35.8,462.8L35.8,462.8z M29.7,535.4l-0.2-0.3l-0.1-0.1l-0.3-0.2l-1-0.7l-0.3-0.2l-0.7-0.3l-0.2-0.2
	l-0.2-0.3l-0.1-0.2l1.8-1.4l0.2-0.1l0.2,0l0.3,0.1l0.2,0.2l0,0.3l-0.2,0.6l0,0.3l0.2,0.3l0.4,0.6l0.3,0.3l0.3,0.2l0.2,0.2l-0.1,0.3
	l-0.2,0.1l-0.4,0.3L29.7,535.4L29.7,535.4z M23.6,478.4l0-0.2l0-0.4l0-0.3l0.3-1.1l0.1-0.2l0.1-0.2l0.2-0.2l0.1-0.1l0.2-0.1l0.8-0.4
	l0.3,0l0.2,0.1l0.1,0.2l-0.2,1.9l-0.4,1.1l-0.2,0.2l-0.2,0.1l-0.3,0l-0.2,0l-0.7-0.2l-0.1-0.1L23.6,478.4L23.6,478.4z M34.9,483.6
	l-0.2-0.1l-0.1-0.2l-0.2-0.6l0-0.3l0.1-0.3l0.1-0.2l0.4-0.6l0.2-0.3l2.1-1.2l0.2,0l0.2,0.3l0.1,0.2l0.1,0.3l0.1,1l-0.2-0.1l-0.1-0.1
	l-0.2,0l-0.6,0.1l-0.3,0.1l-0.3,1l-0.5,0.9L34.9,483.6L34.9,483.6z M16.8,522l0.1-0.4l0-0.2l-0.1-0.2l-0.6-0.2l-0.3,0l-0.3,0
	l-0.3-0.1l-0.2-0.3l0.5-0.6l1.8-1l0.3,0.1l0.4,0.6l0.2,0.4l0.3,0.8l-0.1,0.3l-0.2,0.4l-0.1,0.2l-0.2,0.2l-0.4,0.2l-1,0.2L16.8,522
	L16.8,522z M33.3,482.2l-0.7-1.6l-0.3-0.6l-0.2-0.5l0.2-0.4l0.1-0.2l0.5-0.4l0.2,0l1,0.4l0,0.7l0,1.5l-0.1,0.3l-0.2,0.5L33.3,482.2
	L33.3,482.2L33.3,482.2z M28.1,460.8l-0.3,0l-0.9-0.6l-0.9-1.4l0-0.3l0.1-0.2l0.2-0.1l0.9-0.3l0.3,0.1l1.6,2.3l0,0.2l-0.9,0.2
	L28.1,460.8z M28.1,471.6l-1.3-0.8l-0.1-0.1l-0.2-0.2l-0.3-0.4l-0.1-0.2l0.1-0.3l0.2-0.2l0.3-0.1l0.2,0l0.3,0h0.6l0.3,0.1l0.2,0.2
	l0.2,0.3l0.2,0.3l0.5,1.4l-0.1,0.2l-0.2,0.1l-0.3,0.1l-0.4-0.1L28.1,471.6L28.1,471.6z M33,454.8l-0.4-0.1l-0.5-0.1l-0.3-0.1
	l-0.1-0.1l-0.1-0.3l0.1-1.4l1.5,0.2l0.4,0.1l0.3,0.1l0.1,0.1l0.1,0.2l0.1,0.2l0.1,0.3l0,0.4l-0.1,0.3l-0.2,0.1L33,454.8L33,454.8z
	 M45.5,444.3l-0.4-0.1l-1.1-0.5l-0.2-0.3l-0.1-0.4l0-0.3l0.2-0.5l0.2-0.2l0.9-0.5l0.3,0l0.2,0l0.2,0.1l0.1,0.1l0,0.3l-0.2,2.1
	L45.5,444.3L45.5,444.3z M33.5,450.3l-0.3,0l-0.2-0.1l-0.5-0.5l-0.2-0.3l-0.5-1.7l0.9-1l0.2,0l0.9,1.1l0.5,0.6l-0.8,0.3l0,0.3l0,0.3
	L33.5,450.3L33.5,450.3z M38.5,446.5l-1-1.8l-0.4-1l0-0.3l0.1-0.3l0.2-0.4l0.1-0.1l0.3,0l1,1.4l0.3,1.4l-0.1,0.5l-0.4,0.5
	L38.5,446.5L38.5,446.5z M27.4,536.6l-0.3-0.7l-0.7-1.3l-0.1-0.2l0-0.2l0.3-0.3l0.2,0l0.4,0.2l1.1,0.6l0.7,0.5l0.3,0.2l0.1,0.2
	l0,0.2l-0.2,0.2l-0.3,0.2l-0.8,0.4l-0.4,0.2l-0.2,0L27.4,536.6L27.4,536.6z M28.8,469.6l-0.7-0.6l-0.2-0.2l-0.1-0.1l-0.1-0.2l0-0.3
	l0.2-1.1l0.2-0.4l0.4,0l0.2,0.1l1.1,1.1l-0.4,1.8l-0.2,0.1l-0.2,0L28.8,469.6L28.8,469.6z M27,457.6l-0.5,0l-1.8,0l-0.6-0.3l0-0.3
	l0.1-0.2l0.6-0.6l0.2-0.1l0.3,0l0.2,0l0.4,0.1l1.1,0.2l0.2,0.1l0.1,1L27,457.6z M27,507.8l-0.3-0.7v-0.7l0.1-0.2l0.9-0.5l0.2-0.1
	l0.5-0.1l0.4,0l0.3,0.1l0.1,0.2l0,0.3l-0.1,0.4l-0.1,0.2l-1.6,1.3l-0.2,0.1l-0.1-0.2L27,507.8L27,507.8z M18.2,462.2l-0.1,0
	l-0.2-0.1l-0.5-1.4l-0.1-0.2l0-0.2l0-0.3l0.1-0.3l0.3-0.4l0.3-0.1l0.2,0.1l0.8,1.3v0.9l-0.7,0.6L18.2,462.2L18.2,462.2z M34.1,452.4
	l-1.5-0.8l-0.2-0.2l-0.3-1.1l0.3-0.1l2.3,0.7l0.1,1.6l-0.1,0.2l-0.3-0.1L34.1,452.4L34.1,452.4z M29,455.3l-0.1,0l-0.2-0.1l-0.2-0.3
	l-0.1-0.2l0-0.2l0.1-0.2l1-0.5l1.4-0.1l0.8,1.1l-0.7,0.2L29,455.3L29,455.3z M32.7,535.9l-0.1,0l-0.3-0.2l-1.2-0.8l-0.9-0.9
	l-0.1-0.3l0.1-0.3l0.3-0.1l0.3,0l0.1,0l0.3,0.1l1.4,1l0.2,0.1l0.1,0.2l0.1,0.2L32.7,535.9L32.7,535.9z M38,484.5l-0.1,0l-1.4-0.4
	l-0.4-0.3l-0.1-0.3l0-0.3l0.7-1.3l0.2-0.1l0.2,0l0.6,0.6l0.4,2L38,484.5L38,484.5z M38,460.4l-0.5-0.3l-0.3-0.2l-0.1-0.8l0.1-0.3
	l1.6-0.4H39l0.2,0.2l0,0.2l-0.2,1.5l-0.3,0.3l-0.3,0.1l-0.4-0.1L38,460.4L38,460.4z M35.5,447.7l-1.1-0.2l-0.5-0.1l-0.2-0.1
	l-0.1-0.1l-0.1-0.2l-0.1-0.3l0.5-0.5l0.4-0.3l0.3-0.1l0.1,0.1l0.6,0.4l0.6,0.8l-0.1,0.4l-0.1,0.2l-0.2,0.1L35.5,447.7L35.5,447.7z
	 M33,460.8l-0.4,0l-1.5-0.6l-0.2-0.2l0.3-0.2l0.8-0.1l0.4-0.1l0.2-0.1l0.4-0.2l0.3-0.2l0.3-0.1l0.6,0.1l0.1,0.2l-0.1,0.8l-0.2,0.2
	l-0.2,0.1l-0.5,0.2L33,460.8L33,460.8z M19.4,520.9l-0.1,0l-0.6-0.5l-0.1-0.2l-0.3-1.2l0.1-0.1l0.3,0l1.2,0.3l0.1,0.1l0.3,0.3
	l0.3,0.5l0.1,0.3l-0.2,0.3l-0.6,0.2L19.4,520.9L19.4,520.9z M22.4,457.4l-0.1-0.1l-0.3-0.5l-0.1-0.2l-0.1-0.5l0-0.4l0-0.8l0.1-0.3
	l0.1-0.1h0.2l0.8,0.5l0.1,0.2l0,0.3l0,0.3l-0.2,1.2l-0.3,0.2l-0.2,0.1L22.4,457.4L22.4,457.4z M34.7,472.4l-1-0.3l-0.4-0.1l-0.1-0.2
	l0.1-0.3l0.2-0.1l0.6-0.2l0.3,0l1.5,0l0.2,0.1l0,0.3l0,0.4l-1,0.5l-0.2,0L34.7,472.4L34.7,472.4z M35.7,450.4l-1.4-0.3l-0.2-0.2
	l-0.1-0.7l2.2-0.2l0.2,0.1l0.1,0.7l0,0.3l-0.2,0.1l-0.2,0l-0.3,0.1L35.7,450.4L35.7,450.4z M47.2,438.5l0.6-0.4l0.7-0.1l0.5,0.6
	l0.4,0.1l0.2,0l0,0l-0.2,0.2l-0.9,0.1L47.2,438.5L47.2,438.5z"/>
<path id="MAGALLANES" class="st0" d="M45.2,616l-0.3,0l-0.5-0.1l-0.5-1.3l-0.3-2.6l-0.1-2.5l-0.3-2l-0.2-0.5l-0.7-0.7l0.1,0.5
	L43,608l0.2,1.2l0.7,7.6l-0.1,0.8l-0.4,0.2l-0.5-0.3l-2.8-2.4l-0.3-0.4l-0.2-0.7l0.1-0.9l-0.4-1.5l-0.6-1.7l0.7-0.4l0.1,0.5l1.1,2.5
	l1.1,1.8l0.5-0.2l-1.1-2.4l-1.6-3.6l0.5-0.3l0.5-0.3l0.6-0.8l-2.1,0.6l-1.2,1.6l-0.9-1.7l-0.4-1.6l-0.9-0.2l-0.7-0.3l-0.3-4.3
	l0.1-0.5l0.3-0.8l1.3,0.4l1.5,1.7l0.4,0.9l0.7,1.8l0.2,1l0.2-0.1l0.1-0.6l-1.4-4.2l-1.2-4.5l0.6-0.4l0.5,0.8l0.1,0.6l-0.3-2.5
	l-0.3-0.4l-0.4,0.2l-1.4,1.7l-0.4,0.3l-0.3,0.1l-2.6-0.8l-0.6-0.5l-0.3-2.5l-0.9-0.6l-0.3-0.3l-0.2-2.4l0.3-0.6l0.6-0.5l0.6-0.2
	l3.3,0l0.3,0.2l0.5,0.8l1-2.8l0-2.3l0.4-0.6l1.2-0.4h0.5l0.8,0.6l0.2,0.7l0.4,0.3l0.4-1l-0.9-0.9l-0.7-0.1l-0.6-0.2l-1-1.1l0-0.5
	l0.3-0.5l0.3-0.1l0.5-0.1l0.4-0.2l0.3-0.3l0.5-1.9l-2.6,2.6l-0.2,0.5l-0.4,1.4l-0.4,1.9l0.1,0.5l0.1,0.6l-0.1,0.4l-1.5,1.5l-0.3,0.2
	l-1.4-0.2l-1.1-1.3l-0.6-1.5l-1-2.3l-0.8-2.8l1.1-0.4l1.3,0.5l0.4,0.3l0.3,0.3l0.3,0.3l0.4,0.2l1.9,0.3l-0.7-0.5l-0.7-0.2l-1.2-0.9
	l-0.6-0.8l-2.4-0.2l-2.6-1.8l-3.1-3.1l-0.1-0.7l0.3-0.6l0.5-0.6l0.7-0.5l1.3-0.5l0.8,0.3l1.2-0.1l0.8,1l0.3,0.7l1,1.1l3.4,1.6
	l0.9,0.2l0.3,0l0.2-0.2l-3.8-1.8l-0.3,0l-0.3-0.2l-0.4-0.5l-2.3-4.2l0.1-0.9l0.3-0.5l1,0.1l0.7,0.2l1.4,1.5l3.3,1.4l0-0.7l-0.2-0.6
	l-1.5-0.7l-1.3-0.5l-2.8-1.5l-0.4-0.6l-0.3-1.5l1.5-0.8l0.8-0.3l0.7-0.1l0.4,0.2l0.6-0.1l0.1-0.7l-1.8,0.3l-1.3,0.3l-0.3-0.1L29,562
	l-0.1-1.1l0.1-0.5l1.1-1.1l1.9-0.6l0.3-0.1l2,0.5l0.3,0.5l0.3,1.3l0.4,0.7l0.5,0.3l0.4,0.1l0.9,1l0.4,1.3l0.2-0.7l-0.3-1l-0.4-0.8
	l-0.3-0.3l-1.1-0.1l-0.4-1.5l0-1.3l-0.6-0.4l-1.1,0.1l-1.5-0.5l-0.2-0.3l-0.2-1.5l0.5-3l0.2-0.3l0.4,0l0.5,0.5l0.2,0.5l0.3,0.5
	l0.7,0.4l0.4,0.1l0.5-0.2l-0.6-0.4l-0.5-0.1l-0.3-0.2l-0.8-1.3l-0.4-3.5l0.2-0.4l0.5-0.6l0.3-0.3l0.3-0.2l0.5,0l0.4,0.3l0.3,0.3
	L36,548l0-0.5l-0.9-0.5l-2.1,0.2l-0.1,0.9l0.1,2l-1,1.8l-0.6,1.8l-0.1,1.2l-0.5,3l-0.3,0.5l-0.3,0.1l-0.4-0.3l-1.5-2.1l-0.3-1.9
	l0-3.9l0-4.3l-0.2-0.7l-0.3-0.7l-0.3-1.1v-0.7l0.1-0.5l0.9-1.4l0.6,0.4l0.4,0.2l0.3-0.1l0.6-0.4l0.4-0.2l1.2,0.1l0.9,0.4l0,0
	l4.9,4.3l3.4,2.9l4.2,3.6l0.2,0.2l0,0l1.2,0.3l-0.7,0.8l-4.1,0.1l-0.6,0l-1.1,2.9l-0.6,2.1l0.2,0.4l0.8,1l1,4.1l-0.3,0.4l-0.5,0.5
	l-0.4,0.5l-0.4,1.9l0.6,0.6l0.4,0.3l0.3,0.4l-0.1,0.7l-0.4,0.5l-0.3,0.7l-0.2,0.7l0.2,0.6l1.2,1l1.2,1l0.2,0.3l0.2,0.4l0.6,1.4
	l0.2,0.6l0.2,3.2l0.3,2.2l0.8,3.2l0.3,0.4l0.3,0.3l0.4,0.1l0.4-0.1l0.5-0.2l0.5-0.3l0.5-0.4l0.8-1.1l0.3-0.3l0.5-0.3l1.5-0.8h0.4
	l0.4,0.4l0.3,0.3l0.3,0.3l0.5,0.2l0.5-0.1l0.3-0.2l0.3-0.6l0.3-0.4l0.3-0.2l0.4-0.1l1.7,0.3l1.1,0.9l-0.1,0.5l-0.5,1.2l0.1,0.5
	l0.5,0.5l0.3,0.5l0.4,0.7l0.2,0.5l-0.3,3.5l-0.2,0.5l-0.7,0.1l-0.9,1.7l0.3,1.2l0.3,0.5l0.4,0.3l0.5,0.3l0.6,0.8l-0.2,0.6l-0.4,0.4
	l-0.3,0.6l0,1.1l0,0.9l-0.5,2l-0.3,0.3l-0.4,0.3l1.6,4.2l0.4,0.3l0.7,0.1l0.4,0.2l0.3,0.2l0.4,0.3l0.7,0.6l1.8,2.1l0.3,0.6v0.8
	l0.5,1.9l3.1,0l6.6,0h11.4l4.6,0h1.6l0.8,0.3l2.5,1.2l4.3,1.9l2.5,0l0.8,0l2.9,1.2l0.6,0.3l0.8,0.6l1.5,1.1l1.4,0.2l1.1,0.2l1,0.2
	l2,0.5l-0.1,1.1l-0.5-1l-0.4-0.2l-2.4-0.4l-1.7-0.1l-0.3,0l-1.8-0.3l-0.6-0.2l-0.3-0.2l-0.6-0.5l-0.3-0.3l-0.7-0.4l-0.5-0.2l-0.5,0
	l-0.3,0l-0.8,0.1l-2.5,1.1l-0.4,0.3l-0.2,0.4l0,0.7l-0.1,1.6l-1,1.6l-0.3,0.5l-0.7,0.7l-0.3,0.4l-0.3,0.2l-1.5-0.2l-0.4-0.4
	l-1.5,0.3l-3.2,1.4l-0.4,0.2l-4.6,2.8l-0.5,0l-2.2,0.3l-1.8,0.3l-0.5,3.4l0.2,0.7l0.3,0.3l0,1.7l-1.1,3.2l-0.3,0.5l-0.3,0.4
	l-0.2,0.5l-0.1,0.7l-0.5,4l0,0.8l0,0.6l0.2,0.8l0.2,0.6l0.2,0.8l0.1,0.7l0.1,0.9l-0.1,0.8l-0.5,3.1l-0.3,0.6l-0.7,0.9L73,658
	l-0.7,0.3l-2.4-1.2l-0.4-0.1l-0.6-0.1l-0.7,0h-0.3l-0.6-0.1l-0.9-0.3l-2.2-1.6l-1.2-0.3l-1.6-0.5l-0.9-0.5L58,651l-0.8-1.3l-0.7-1.1
	l-0.3-0.6l-0.5-1.2l0.4-2l2-1.8l2.4,0.3l0.4,1.1l0.1,0.5l-0.1,0.9l-0.2,0.6l-0.9,0.6l-1,0.5l0.5,0.2l1.2-0.4l0.5-0.3l0.8-0.6
	l0.1-0.5l-0.1-0.8l-0.1-1l0-0.5l0.1-0.8l0.3-0.5H64l0.4,0.5l0.7,4.4l-0.2,0.6l-0.3,0.3l-0.5,0.4l-1.3,0.8l-0.4,0.2l-0.5,0.4l0,0.7
	l0.1,0.1l0.7-0.4l1.7-0.7l0.4-0.3l0.6-1.2l-0.1-1.6l-0.2-1.2l0.1-1.5l0.4-1.7l3.7-2l0.4,0l0.4,0l0.4-0.1l0.3-0.2l0.3-0.2l0.3-0.3
	l2.8-5l0.2-0.6l-0.7-1.3l-1.3-0.4l-1.4-0.1l-3.6,2l-3,1.9l-1.2,1l-0.2,0.6l-1.5,2.3l-0.8,0.2l-0.4,0L60,640l-0.3-0.4l-0.3-0.5
	l-0.3-0.5l-0.3-0.3l-1.2-0.4l-3,0.8l-0.4,0.5l1.2-0.2l1.4,0l2.2,1.9l0.3,0.6l-0.2,0.4l-2,0.6l-0.5-0.1l-0.5-0.5l-1-0.3l-0.7,0.4
	l0.4,0.6l0.5,0.2l0.3,0l0.4,0.2l-1.4,2.8l-0.5,0.2l-0.7-0.2l-0.4-0.6l-0.3-0.3l0.1,0.9l1.2,1.4l0.4-0.3l0.4-0.1l1.5,2.2l0.2,0.6
	l-0.3,0.4l-1.4,0.2l-0.2,0l-0.4-0.5l-2.8-2.3l-1.9-1.1l-1.1-0.8l-0.3-0.5l-1.5-1.2l-0.3-0.1l-0.4,0l-0.4-0.1l-1-0.9l-1.2-1.8
	l3.2,0.2l1.1-0.2l0.8,0.1l1.4,1.1l1,1.7l0.3,0.3l0.6-0.1l0.2-1.2l-0.8-0.7l-0.6-0.7l0.5-1l0.6,0.2h0.8l-0.7-0.5l-1-0.2l-0.4,0.1
	l-0.4,0.4l-0.4,0.1l-1.2-1.1l0.4-0.5l0.2-0.2l0.3-1.1l-0.6-0.8l-0.4-1.4l-0.1-1.8l0.6-0.8l2.8-1.8l1.9,1.2l1.7,0.5l0.6-0.2l1.7-1.5
	l1.7-2l0.2-0.5l2.3-0.3l1.6,1.2l0.7,0.2l0.8,0l1,0l0.5-0.1l0.4-0.1l0.5-0.2l2-1l-0.6-1.5l-0.4-0.3l-0.6,0l-0.3,0.1l-0.4,0l-1.8-0.3
	l-2.1-0.5l-3-0.4l-2.1,0.1l-0.5,0.1l-0.5,0.6l-0.4,0.9l-0.7,1.7l-1.8-1.5l0.7-1l0.4-0.3l0.4,0l0.6-0.3l-0.3-0.4l-1.5,0.5l-0.3,0.3
	l-1.2,0.2l-2.3,0l-1.5,1.9l0.3,0.3l1-0.7l1.8,0.7l0,0.5l-1.1,1.6l-0.6,0.7l-0.9,0.8l-0.9,0.2l-0.4,0.1l-0.4,0.5l-0.3,0.6l0.5,1.5
	l0.4,1.6l0,1l-0.4,0.9l-1.5,0.5l-0.1,0.1l-0.5,0.3l-1.1,0.1l-1.6-0.7l-1.9-1.8l2-1.5l1.1-1.2l-1.7-0.3l-2.8-1.8l0.7-0.6l1.3,0.1
	l0.3,0.4l2.2-0.3l-0.3-0.7l0-0.9l2.2-4.9l0.6-0.3l1.2,0.2l0.8,0.2l0.4,0.1l-0.4-0.5l-1.3-0.3l-0.4-0.1l-0.4,0l-1.1,0.2l-0.4,0.4
	l0.2,1.2l-0.1,0.5l-1.4,2.1l-0.5,0l-0.3-0.2l-0.1-0.5l0-1l-0.4-0.2l-0.3,0.2l-1.6,1.4l-0.8,0.8l-0.5,0.9l-0.2,0.5l-1.2-0.6l0.1-2.9
	l0.8-1l0.6-0.2l0.4,0.2l0.2-0.4l-0.7-0.2l-0.3-0.5l-0.7-2.1l0-0.7l0.2-0.4l0.4,0.1l0.4,0.1l0.4-1.2l-0.3-2.2l-0.9-1.5l-1.1-1.7
	l-0.2-0.6l0.1-0.8l0.4-0.3l0.4,0.4l0.2,0.8l1.7,2.7l0.4,0.1l0.7-0.5L43,619l0.3,0.1l0.8-0.2l0.3-0.3l0.4-1l0.7-1.1l1-0.5l1-0.5
	l0.5,0.1l0,1.6l0,1.1l1.1,1.4l0.6,0.3l0.5-0.6l0.8-3.2l-0.2-0.9l-0.5,0.5l-0.5,1.2l0,0.6l-0.4,1l-1-0.7l0-2l1.2-3l0.8-0.4l1.5,1.1
	l-0.1,1.3l0.6,1l0.6,0.3l0.3,0.3l0.7,1.3l0.3,0.7l-0.6,2.8l-0.5,0.6l-1.9,0.8l-2.7,1.7l0.4,0.2l1.1-0.4l2.6-1l0.8-0.5l1.3-1.3
	l0.3-2.6l-0.2-0.5l-1-1.2l-1.4-1.8l-0.3-2l0.5-0.4l1.6,0.3l0.4-0.2l0.3-0.3l0.2-0.4l-0.2-3l-0.5-1.4l-2.2-2.6l-0.8-0.7l-0.4-0.2
	l-0.6-0.1l-0.7,0l-1.2-0.5l-2-1.3l-0.3-0.5l-0.6-0.5l-0.6,0.1l-1.2,0.3l-0.4,0.5l0.2,0.4l0.6,0.2l0.3-0.1l0.6-0.4l1.3,0.4l1.2,0.7
	l1.8,1.6l2,2l0.3,0.2l1.6,0.5l0.3,0.4l-0.2,1.1l-0.9,1l-1.3,0.1l-1-0.7l-0.3-0.8l-2.3-1.1l-2.8-2.1l-0.9-0.6l-0.6,0.1l0.8,2.2
	l0.5,0.3l0.5,0.1l0.4,0l0.5-0.3l0.5,0.3l0.4,0.4l0.5,0.8l-0.9,1.5l-0.3,0.2l-0.6,0.1l-1,0.3l1.7-0.3l0.9-0.7l0.5-0.3l0.5,0.3
	l0.2,0.6l-0.5,0.5l-1,0.4l-0.9,0.4l-0.7,0.5l-0.2,0.6L45.2,616L45.2,616z M109.9,680.2l0,2.4l-0.1,0.1l-0.1,0l-0.2,0l-0.2-0.1
	l-0.3-0.3l-0.5-0.6l-0.3-0.2l-1.9-0.9l0.6,1l0.2,0.2l0.2,0.2l0.3,0.3l0.6,0.3l0.2,0.5l-0.3,0.4l-0.5,0.2l-2.3,0.5l-1.5,0.2l-0.3,0
	l-0.3-0.1l-5.3-1.9l-1-0.4l-1.5-0.8l-0.1-0.6l0.1-0.3l0.4-0.5l0.1-0.3l-0.1-1.5l-0.2,0l-1.1,0.8l-0.1,1.5l-0.3,0.5l-5,1.1l-1.8,0.1
	l-0.5,0l-0.5-0.1l-0.4-0.2L86,681l0-0.8l0.2-0.4l0.3-0.4l0.8-1.3l0.1-0.3l-0.2-0.1l-1.2,1.6l-0.4,0.8l-0.1,0.4l0,0.3l-0.4,0.2
	l-0.5-0.2l-2.8-0.2l-1.5,0.8l-0.2,0l-0.2,0l-0.5-0.1l-0.3-0.2l-0.2-0.3l0.7-0.9l0.2-0.2l0.2-0.1l0.6-0.1l0.4-0.2l0.9-0.5l1.2-0.8
	l0.3-0.2l0.8-1.2l0.1-0.3l-0.1-0.1l-0.3,0l-0.9,0l-0.2,0.1l-1,1l0.2,0.2l0.4,0.2l-0.1,0.2l-0.7,0.4l-1.3,0.5l-1,0.3l-1.4-0.1
	l-0.3-0.8l0.2-0.1l0.6,0l1.1-0.4l0.2-0.2l-0.2-0.2l-0.2,0l-0.2,0l-0.9,0.3l-0.9,0.8l-1.1,1.4l-0.4,0.1l-0.1-0.2l0-0.3l0.1-0.3
	l0.1-0.2l0.2-0.3l0.1-0.2l0.1-0.3l0.4-1.6l0-0.5l-0.6-0.1l-0.4,0.3l0,0.3l-0.1,0.3l-0.2,0.3l-1.5,0.9l-0.2,0.1l-1.3-0.6l-0.3-0.2
	l-0.1-0.2l0-0.3l0.2-0.2l0.2,0l0.2-0.8l-0.1-0.9l-1-1.4l-0.3,0l-0.7,0.8l-1.1,2.8l-0.1,0.5l-0.2,0l-0.2-0.1l-2.3-1.7l-0.2-0.2
	l-0.4,0l-0.4,0.2l-0.6,0.5l-0.3,0.4l-0.3,0.1l-1.4,0.1l-0.2,0l-0.3-0.1l-0.2-0.2l-0.2-0.5l-0.3-1.4l-0.1-1.4l0.1-1.1l0.2-0.2l0.2,0
	l0.8,0.3l0.7,0.8l0.2,0.5l0,0.3l0.2,0.3l0.3,0.2l1.1,0.4l0.9,0.3l0.2,0l1.3-0.7l-1.7-1.9l-0.3-0.2l-0.2,0l-0.5,0.3l-0.2,0l-0.6-0.4
	l-0.2-0.3l-0.1-0.8l0.8-0.5l0.4,0l0.3,0l0.2,0l0.3,0.3l0.2,0.6l1,1.4l0.2,0.2l0.2,0.1l0.5,0.1l1-0.4l0.1-0.2l-0.3-0.3l-0.8-0.1
	l-0.2-0.1l-0.2-0.2l-0.2-0.4l-0.2-0.5l0.2-0.3l0.2,0l2,0.9l1-0.5l-0.7-0.4l0.3-0.4l0.5-0.4l0.2,0l2.4,1.4l3.1,1l0.5-1.3l0-0.3l0-0.3
	l0-0.3l-0.1-0.6l0.2-0.3l0.6-0.4l0.6-0.2l0.6,0l0.5,0l1.5,0.2l0.2,0l0.5,0.2l0.1,0.2l-0.8,1.3l-0.6,1.4l-0.3,1.5l-0.3,2l0.5-0.6
	l1.1,1l-0.7-1.2l-0.1-0.2l-0.1-0.5l0.1-0.4L81,672l0.1-0.2l0.3-0.5l0.2-0.2l0.5-0.5l0.2,0l0.2,0.4l0.2,0.3l1.5,1.3l0.5,0.2l0.2,0.1
	l0.2,0.2l0.8,0.6l0.2,0.2l0.1,0.2l0.2,0.3l0.2,0.3l0.3,0.1l0.3,0l1.6-0.7l-1.3-1l-0.3-0.3l-0.6-0.3l-0.3-0.2l-0.7-0.4l-0.3-0.2
	l-0.3-0.2l-0.6-0.4l-0.2-0.3l-0.7-1.3l0.1-0.5l0-0.4l-0.2-0.4l-0.2-0.2l-0.2-0.3l-0.3-0.2l-0.8-0.3l-0.3,0l-0.6-0.1l-1.2,0.1l-0.5,0
	l-0.3-0.1l-0.2-0.1l-0.3-0.3l-0.2-0.3l-0.5-2.3l0.5-0.2l0.3,0.3l1.1,0.8l1.9,1l4.3,2.4l2.7,2.5l0.3,0.1l1-1.1l0-0.3l-0.2-0.2l-1-0.3
	l-0.3-0.1l-0.3-0.3l-0.1-0.3l0-0.3l0.9-0.9l0.5-0.5l0.2-0.2l0.2,0l0.2,0l0.7,0.5l0.5,0.7l1.5,3.2l1,2.7l0.3,0.4l0.3-0.1l0.2-1.8
	l-0.9-2.3l-0.5-1.2l-0.2-0.2l-0.3-0.3l0.2-0.6l0.1-0.1l0.3,0l0.6,0.2l1.6,0.8l0.3,0.3l0.4,0.5l3.5,0.9l1.9,1.1l0.2,0.1l0.1,0.2
	l0.1,0.3l0,0.3l-1.1,1.3l-0.2,0.1l-0.5,0.3l-0.2,0.2l-0.6,1.2l-0.2,0.4l0.5,1.3l0.2,0.2l0.2-0.8l0.5-1.3l0.4-0.8l0.2-0.3l0.2-0.2
	l0.4-0.3l0.3-0.1l0.2,0.1l0.1,0.2l0.2,0.5l0.2,0.6l0.1-0.1l0.3-0.6l-0.2-0.8l-0.2-0.3l0-0.5l0.1-0.4l0.2-0.4l0.2-0.1l0.6,0l0.2,0
	l0.4,0.2l0.5,0.5l0.2,0l0.2-0.2l0-0.9l-0.2-0.3l-0.2-0.1l-0.9-0.6l-2.6-1.5l-2-0.9l-0.4-0.1l-1.2-0.5l-0.2-0.1L97,667l-0.3-0.5
	l-1.6-0.6l-0.4-0.1l-0.3,0l-0.3,0l-0.3,0l-0.4-0.1l-1.3-0.5l-2.3-1.6l-0.3-0.3l-0.1-0.3l-1.1-3.7L88,657l-0.1-0.6l0-0.5l0-0.5
	l0.3-0.5l0.3-0.2l3.2-2.1l0.2,0l0.4,0.1l0.3,0l0.2,0l0.3,0l0.7-0.3l5.7-3.2l0.2-0.1l0.2-0.3l0.1-0.5V648l-0.2-2.4l-0.1-0.3l-0.3-0.3
	l-2.7-0.2l-0.5,0l-4.1,0.6l-0.1,0l-0.6,0.2l-0.5,0.3l-0.6,0.5l-0.2,0.2l-0.3,0.5l-0.3,0.2l-1.8,0.8l-0.2,0l-0.2,0l-0.2-0.1l-0.3-0.2
	l-2.6-2.2l-0.1-0.2l-0.4-1.8l-0.1-1.2l0-0.3L84,638l0.1-0.3l0.1-0.2l0.2-0.3l1.1-1.3l0.2,0.2l-0.2,0.6l0,0.4l0.3,1.2l0.2,0.1
	l1.6-0.5l0.2-0.1l0.3-0.2l0.2-0.2l0.2-0.2l0.1-0.2l0.1-0.2l0.4-1.3l0-0.3l0-0.4l-0.1-0.3l-1.5-0.3l-0.7-1.1l0-0.3l-0.1-0.3l-0.3-0.3
	l-0.3-0.2l-0.4-0.1h-0.2l-0.3,0l-0.4,0.1l-0.2,0l-0.1-0.2l0.3-0.5l0.4-0.2l2.6-0.5l0.3,0l0.3,0.1l0.4,0.2l0.2,0.2l0.2,0.3l0.2,0.5
	l0.5,0.7l0.2,0.3l0.3,0.3l0.3,0.1l0.3,0l0.3,0l0.3-0.1l2.5-1.5l0.3-0.3l0.3-0.4l1.3-2.2l0.1-0.4l0-0.3L96,626l0.3-0.3l0.3-0.3
	l1.6-0.9l0.5-0.2l0.8,1l0.1,0.2l0.1,0.2l0.1,0.3l0,0.3l0.1,0.3l1.6,2.2l0.2,0.2l0.4,0.4l0.4,0.3l0.4,0.1l0.2,0l0.4-0.2l1.6-0.8
	l1.8-1.2l0.2-0.1l0.2-0.3l1.7,0.7l1.1,0.8l0,0.2l0,3.4l0,11.4l0,1.5l0,4.1l0,7.9l0,3.8l0,8.2l0,0.5l0,4.7L109.9,680.2L109.9,680.2z
	 M22.8,569.9l-0.2,0l-1.1-0.6l-0.3-0.4l0.4-0.8l0.4-0.4l0.9-0.6l0.4-0.2l0.3,0.2l0.5,0.3l-0.7-0.9l-0.4-0.1l-0.4,0.2l-1.2,1
	l-0.5,0.1l-0.4-0.6l0.1-1L21,564l-0.5-2.3l0.5-3.3l0.6-0.6l0.8-0.7l1.8-2.5l-0.6,0.2l-0.9,1.2l-1.6,1.9l-1.1,0.8l-0.2-0.5l-0.1-0.9
	l-0.5,0.6l0,0.6l0,1.1l0,0.8l0.2,0.6l0.4,0.5l-0.3,2.9l-0.4,2l-0.5-0.1l-1.3-1l-1-2.1l-1.1-2.7l0.3-1.3l-0.3-1.5l-0.5-0.9l-0.6-0.6
	l-0.5,0.2l-0.4,0.3l-0.4-1.2l-0.1-0.7l0-1.2l0.5-0.7l0.3-0.1L14,553l0.8,1.3l0.2,0.6l0.5,1.1l1.1,1.5l0.4,0.3l0.1,0l0-0.2l-0.5-0.9
	L16,556l-0.3-0.3l-0.3-0.5l-0.6-1.5l0-1l0.7-0.2l0.3,0.4l0.8,1.3l0.4,0.2l1.2-1.7l0.1-0.4l-0.3-0.9l0.5,0.4l1.1,1.4l0.8,1.1l0.4-1
	l0.9-4.2l-0.9-1.1l-0.5-0.5l-0.3-0.2l-0.3-0.5l-0.8-1.7l-0.5-1.5l0.2-1l1-0.8l2-1.4l1.4-0.4l2.9,0.7l0.3,0.9l0.4,3.2l0.3,1l0.1,0.5
	l-0.1,2.7l0.5,2.3l0.1,0.5l0,1.8l-0.4,2.7l-0.3,1l-0.3,0.6l-0.1,0.8l0.3,1l-0.7,0.8l-0.7,1.5l0,0.6l0.9-1l-0.1-0.4l0-0.5l0.9-0.2
	l0.4,0.4l0.3,0.7l0.1,1.4l-0.7,4.3l-0.2,0.3l-0.9,1.1l-1.2,1.1l-0.5,0.1L22.8,569.9L22.8,569.9z M110.9,693.2l-0.3,0l-0.3-0.1
	l-0.3-0.4l-0.3-0.7l-0.3-0.3l-0.4,0l-0.5,0.4l2,2.1l0.8-0.2l0.4-0.3l0.3-0.2l0.4-0.1l0.7,0.1l1,0.4l2.6,1.3l0.3,0.5l-0.1,0.7
	l-0.2,0.5l0.6,0.2l0.8-0.1l-0.6,1.3l0.9,1.5l0.4,0.2l0.7,0.1l-0.2,2l-1,1l-0.2,0.2l-0.1,0l-0.4-0.1l-0.2-0.4l-0.5-0.7l-1.1-1.3
	l-0.6-1.2l0.2-0.9l-1.6-1.3l-0.3-0.1l-0.5,0.6l-0.8,0.1l-1-0.9l-1-0.1l-1.7,0l-0.6,0.7l-0.8,0.3l-0.4,0l-0.6-0.5l-0.6-0.8l-0.4-0.8
	l0.5-0.7l1-0.3l0.4-0.1l0.3,0.2l0.5-0.1l0.2-1.3l-1.8,0.7l-0.2-0.5l0.3-1.4l0.4-1.3l0.6-0.6l0.1-0.5l-2.2,1.7l-0.9,0.2l-1.6-0.5
	l-0.4-0.2l-0.4-0.4l-0.3-0.5l-0.4-1.6l-1.8,0.3l-0.4,0.1l-0.3,0.2l0.9-0.1l1,0.1l0.4,1.5l-1.5,0.6l-0.2,1l1.2,1.9l0,1.5l1.3,0.3
	l1,0.1l-0.1,1.5l-0.3,0.3l-2.2-0.6l-1.5,0.3l-0.9-2.2l0.4-0.9l0.8-0.2l0.3-0.2l-1-0.6l-0.4,0l-1.1,1l-0.5-1.1l-1.3-0.6l0.1-0.8
	l0.4-0.8l1.1-0.9l0.4-0.1l0.5-0.2l0.3-0.5H97l-0.6,0.4l-1.3,1l-2.1,0.6l-0.4,0l-0.9-0.8l0.8-0.1l0.3-0.3l-0.9-0.9l-1.6-0.1l-0.2-0.3
	l0.3-0.7l1.1-1.3l0.5-0.3l1.5-0.3l2.1-0.2l4-0.8l2.4-0.6l2.9-0.3l2.3,0.1l0.3-0.1l1-0.8l1.1-0.2l2.1-0.2l1.5,0.6l0.9,1.2l0.2,1
	l-0.2,0.7l-3.3,1.5l-0.3,0.4l-0.8,0.2l-1.8-0.5l-0.7-0.5l-0.5-0.5l-0.5-0.4l-0.3-0.2l-1.6-1.1h-0.3l-0.3,0.6l1.4,1.5l1,0.6l1.7,1
	l2.5,0.1l2.1,0l0.9,0.1l1.5,1l1,1.1l-0.1,0.5l-4.2,0.6L110.9,693.2L110.9,693.2z M43.4,656.8l0.7-0.5l0.1-2.3l-1.9,0.1l-0.6,0.5
	l-0.5,0.3l-0.4,0.1l-1.2,0l0.6-0.5l0.4-0.2l0.3-0.3l-0.1-1l-0.4,0l-0.6,0.1l-0.4-0.1l-0.3-0.3l0-1l0.2-0.5l0.3-0.2l0.6-0.1l0.4,0.3
	l0.3,0l0.3-0.2l0.4-0.4l0.3,0l1.1,0.6l0.3,0.4l0.2,0.5l0.4,0.6l0.4,0.3l1.2,0.4l0.4,0l1.3,0l1.3-0.2l0-0.6l-0.4,0l-0.3,0.3l-1,0.1
	l-0.9-0.1l-0.5-0.1l-1-0.3l-0.5-0.3l-1.8-2.8l-0.3-0.9l0.6-0.1l0.5,0.2l0.8,0.4l2.6,0.5l-0.4-1.2l-0.6-0.9l1.4-0.5l1.1,0.1l1.3,0.5
	l0.5,2.6l-0.2,1.1l-0.3,0.9l0.5,1.3l0.8-2.5l0.1-0.8l-0.4-0.9l-0.3-0.9l1,0.4l0.7,0.9l0.9,2l1.2-1l1.5,0.2l0.7,0.4l0.5,1l-0.1,0.7
	l-0.4,0l-0.4,0.2l-0.3,0.5l0.6,1.6l0.5-0.7l0.5-0.6l1.6,0.6l0.3,0.3l1.4,1.8l-0.5,0.3l-0.3,0.1l-0.3,1l-0.5,0.3l-0.4,0l-1.1-0.3
	l-0.9,0.8l0,1.7l0.3,0.2l0.6,0.3l0.5,0.1l-0.1,1.1l-1.5,0.2l-1.5,1.3h-0.4l-0.3-0.1l-0.6-0.7l-1.2,0.6l-1.6,1.1l-0.7,0l-1.7-0.9
	l-0.4-0.5l0.3-0.4l1.6,0l1.6-1.1l0.7-4.1l-1-0.6l-0.4,0.3l-0.9,0.8l-0.5,0.2l-1.3-0.1l-0.1-0.5l0-0.6l-0.5-0.2l-0.6,2.5l0,0.6
	l-0.4,1.7l-1.3-0.6l-0.5-1.3l-0.5-1.3l-0.3-1L43.4,656.8L43.4,656.8z M118,683.1l1.4,0l1.5,0.2l1.2,0.1l2,0.1l0.9-0.1l0.3,0l1.8,0
	l0.6,0.1l1,0.2l0.5,0.2l0.5,0.2l0.3,0.2l0.5,0.3l0.3,0.3l1.6,2.5l0,1.6l-0.4,1.1l-0.2,0.4l-0.1,0.2l-1.9,2.5l-0.1,0.1l-0.6,0.1h-0.2
	l-1.4-0.4l-0.2-0.1l-0.3-0.2l-0.2-0.2l-0.1-0.3l0-0.4l0.3-0.4l0.2-0.3l0-0.3l-0.1-0.2l-0.3-0.3l-0.3-0.2l-0.4-0.1l-0.4-0.1l-0.3,0
	l-0.3,0.1l-0.5,0.2l-0.2,0.2l-0.1,0.2l-0.2,0.4l-0.1,0.6l0,0.6l-0.2,0.2l-0.2,0l-2-0.2l-0.3-0.1l-0.8-0.5l0.2-0.3h0.2l0-0.4
	l-0.4-0.8l-0.3,0.1l-1.9,1l-0.5,0.3l-0.1,0l-0.3,0l-0.2-0.1l-0.2-0.1l-0.3-0.3l-0.1-0.2l-0.6-2.7l0.1-0.4l-0.3-2.3l-0.3,0.1
	l-1.3,0.1l-0.4-0.5l-0.2-0.9l0.2-0.3l0.2-0.1l1.9-0.3L118,683.1L118,683.1z M42.6,643.5l1-0.2l0.2,0.1l1,0.7l1.6,1.1l0.2,0.3
	l-0.2,0.3l-0.2,0.1l-0.2,0l-1.6-0.1l-3.5-0.9l-0.1-0.7l-0.1-0.3l-1-0.5l-0.4-0.9l-1.6-1.6l-0.2,0.1l-1.4-1.4l-0.9-1.1l-1.2,0.3
	l-0.6,0.3l-0.7,0.4l-3.3-0.1l-0.3-0.2l-0.4-1.4l-1-1.3l-0.3,0l-0.9-0.2l-1.1-0.9l-0.1-0.3l0.1-0.4l0.3-1.1l-0.4-0.6l-0.1-0.1
	l-0.4-0.1l-0.7-0.3l-0.2-0.1l-0.7-1l0.6-0.9l0.2,0l0.7,0.5l2,2l0.8,1l0.5,1.3l0.6,0.7l1.6,0.4l0.2-0.3l0.6-0.2l1-0.2l1.5,0.6
	l1.8,1.1L36,638l0.6,0.4l1.1,0.5l0.9,0l0-0.5l0.7,0.2l0.6,0.8l0.1,0.2l0.3,1l-0.1,0.3l-0.2,0.3l-0.1,0.3l0.5,1.4l0.1,0.3l0.2,0.1
	l0.5-1l-0.1-0.4l-0.1-0.5l-0.1-0.8l0.2-0.3l0.2,0l0.3,0.1l0.4,0.2l1.6,2l0.1,0.3L42.6,643.5L42.6,643.5z M72.3,661.3l0.3,1.5
	l1.2,0.3l1.3-0.6l1,0.7l0.1,0.3l0.3,1.8l0.1,2.2l-1.7,2.7l-0.2,0.2l-0.3,0l-0.3-0.3l-0.5-0.7l-0.8-0.2l-1.3-0.6L70,666l-0.1-0.4
	l0.1-0.4l0.2-0.2l0.5,0l0.2-0.1l0.1-0.2l-0.5-0.9l-1.2,1l-0.5,1.6l-0.1,0.3l0,0.5l-1.4-0.3l-0.3-0.2l-0.3-0.8l-0.2-0.5l-0.1-0.5
	l0.1-0.3l0.8-1l-0.4-2.8l0.2-0.5l0.3-0.4l0.2-0.2l0.6-0.1l1.4,0l1.3,0.6l1.1,0.6l0.1,0.1L72.3,661.3L72.3,661.3z M83.1,666.5l-0.1,0
	l-1.2-0.5l-0.6-0.3l-0.5-0.3l-0.2-0.2l-1.3-1.2l-0.3-0.3l-0.8-1.6l-0.3-2.4l0-0.3l0-1.4l0.1-0.2l0.8-0.6l0.7-0.3l0.2,0l1.2,0.4
	l0.3,0.3l0.2,0.1l0.2,0l0.3-0.2l0.2-0.3l0-0.3l-0.1-0.3l-0.3-0.3l-0.2-0.1l-0.6-0.3l-0.1-0.2l-0.1-0.3l-0.1-1.6l0.1-0.3l0.4-0.1
	l0.2-0.1l0.2-0.1l0.3-0.2l0.3-0.3l0.2-0.3l0.1-0.2l0.1-0.4l0.1-0.5l0.1-0.3l0.1-0.2l0.2-0.2l0.7-0.1l0.2,0.2l-0.1,1.8l-0.1,0.3
	l-0.1,0.3l0,0.3l0,0.5l0,0.3l0,0.3l0.7,3.3l0.8,2.1l0.5,1.4l0,0.4l-0.3,0.3l-0.3,0.1l-0.5,0l-0.2,0l-0.3-0.1l-0.2-0.1l-0.4-0.3
	l-0.4-0.4l-0.4-0.6l-0.2-0.2l-1.3-1.3l-0.1,0.3v0.3l0.2,0.8l0.1,0.2l0.1,0.2l0.3,0.4l0.3,0.3l0.1,0.2l0.3,0.5l0.6,2l0.1,0.4l0.2,1.8
	L83.1,666.5L83.1,666.5z M66.7,659.6l-0.7,0.7l0.2,0.3l0.3,0.3l0.5,2l0,0.4l-0.8,1.2l-0.3,0.3l-0.2,0l-0.2,0l-0.5-0.2l-0.2-0.1
	l-0.2-0.2l-0.2-0.3l-1.2-1.9l0-0.4l0.1-0.5l-0.1-0.2l-0.2,0l-0.2,0.3l0,0.3l0.1,0.3l0.5,1.7l0.5,0.7l0.2,0.1l0.3,0.2l1.4,1.8l0,0.4
	l-0.1,0.3l-1.1,1.8l-0.2,0.1l-0.2,0l-1.2-0.3l-0.3-0.5l0.2-1.3l-2.2-2.3l-1.3-1.4l-0.2-0.2l-0.1-0.3l-0.1-0.2l-0.4-2.6l-0.1-0.5
	l0.1-0.4l0.6-0.1l0.2,0l0.2,0l0.9,0.4l0.2,0.2l0.2,0.5l0.6,0l0.7-1.8l0.2-0.7l0.4-0.2l0.3-0.1l3.1,1.2l1,0.5l-0.1,0.4L66.7,659.6
	L66.7,659.6z M18.6,575.3l-0.3,0.5l-1.7,2.3l-0.2,0.2l-0.3,0.1l-1-0.1l-0.1-0.1l-0.1-0.2v-0.3l0.2-0.4l0.5-0.3l0.4-0.5l0.6-0.9
	l-0.2-0.2l-1,0.3l-0.7,0.5l-1.5,0.6H13l-0.1-0.2l0-0.4l0.2-1.5l0.4-1.2l0.4-1.1l0.1-0.3l0.2-0.2l0.2-0.1l0.3,0l0.2,0.1l1,0.4
	l0.1,0.2l-0.1,0.2l-0.1,0.1l-0.4,0.1h-0.6l-0.1,0.2l0.2,0.4l0.2,0.2l0.6,0.3l1.1,0.3l0.8-0.1l0-1.1l-0.2-0.7l-1-0.3l-1.1-0.7l-1.1-1
	l-0.3-0.8l1.2-0.9l0.2,0l2.3,0.6l0.2,0.1l1.9,2.3l-0.7,0.7l-0.2,0.3l-0.1,0.2l0.6,0l2.3-0.6l0.3-0.6l-0.1-0.3l0.6-0.3l0.2,0.3
	l0.1,0.5l0,0.8l-0.3,0.7l-2.7,1.6l-0.2,0.1L18.6,575.3L18.6,575.3z M23.4,593.5l-2.3-1.1l-1.1-1.9l-0.1-0.2v-0.4l0.1-0.3l0.4-1
	l0.2-0.1l0.8,0.1l1.7,0.4l0.8,0.3l1.1-0.6l0.1-1.8l0-0.4l-0.1-0.3l-0.4-0.4l-0.2-0.1l-0.2-0.2l-0.1-0.2l0.1-0.2l0.3-0.2l0.5,0.1
	l1,0.5l0.9,0.6l1.1,1.2l0.1,0.3l0.1,0.4l0.4,3.7l-0.3,1.3l-0.1,0.2l-0.2-0.1l-0.1-0.5l-0.2-0.8L27,591l-0.2-0.1l-0.2,0l-1.6,1
	l-0.3,0.9l-0.1,0.2L23.4,593.5L23.4,593.5L23.4,593.5z M85.5,682.9l0.4,0l0.1,0.2l-1.8,0.9l-0.6,0.1l-0.3,0.2l0,0.4l0,0.4l-0.1,0.2
	l-1.6,0.3l-0.5,0l-0.4-0.1l-0.3-0.2l-0.2,0.1l-0.2,0.4l1.1,0.5l2.3,0.3l1.8-0.3l0.2,0l0.7,0l0.1,0.1l0.1,0.5l0.2,1.5l-0.4,0.4
	l-0.4,0l-0.2-0.1l-0.2-0.2l-0.1-0.4l-0.4-0.4l-0.3-0.1l-0.2-0.1l-0.5,0.4l0,0.6l0.1,0.2l0.4,0.2l0.3,0l0.2,0.1l0.1,0.2l-0.2,0.3
	l-2.1,1l-0.3,0l-0.1-0.2l-0.1-0.3l0-0.5V689l0.3-0.5l-0.8-1l-1.3,1.1l-0.3-0.1l-3.1-1.2l-1-0.8l-0.1-1.9l0.2-0.2l0.2-0.1l1.6-0.3
	l1.2,0.3l0.6,0.2l0.7,0.3l1.8,0.1l0.3-0.1l-0.8-0.3l0.1-0.3l1.4-0.8l0.2-0.1l0.9,0L85.5,682.9L85.5,682.9z M30.6,587.7l-0.4-1
	l-0.2-0.2l-0.3-0.2l-0.6,0.3l-0.1,0.2l-1.2-0.5l-1.4-1.1l-0.1-0.2l-0.7-1.5l-0.1-0.3l-0.1-0.4l0.1-0.3l1.1-1l1-1l-1.1-0.5l-0.1,0
	l-0.5,0.2h-0.2l-1.5-0.8l0.9-0.8l0.2-0.1l0.5-0.3l0.3-0.1l0.2,0l2.4,1.6l1.3,2.9l0.5,1.3l0.8,2l0.1,0.5l0,0.5l-0.2,0.7l-0.1,0.1
	L30.6,587.7L30.6,587.7z M91.8,686.5l0.1-0.7l0-0.3l-0.3-0.5l-0.4-0.1l-0.1-0.4l0.3-1.5l0.1-0.1l0.8-0.3l0.1,0l1.6-0.3l0.8,0l4,0.9
	l0.4,0.1l2.4,0.8l0.5,0.5l-0.3,0.2l-0.5,0l-2.7,0.7l-1.4,0.4l-2.1,0.4l-1.6,0.3L91.8,686.5L91.8,686.5z M34.8,630.7l-0.1,0l-0.2-0.1
	l-1.9-2.2l-0.1-0.3l0-0.2l0.3-0.9l0.1-0.2l0.8-1l2.3-2.2l0.9-0.6l0.2,0l0.2,0.1l0.2,0.2l0.1,0.3l0.6,1.3l-0.8,2.9l-0.8,1.7l-0.1,0.2
	l-0.2,0.3l-0.3,0.1l-0.2-0.1l-0.1,0l-0.5,0.3L34.8,630.7L34.8,630.7z M19.5,601.8l-0.1,0l-0.3-0.2l0.1-0.6l1-0.8l0.7-0.3l0.3-0.2
	l1-1.2l0.1-0.3l-0.1,0l-1.5,0.9l-0.3,0.2l-0.3-0.1L20,599l-0.1-0.3l0-0.3l0.1-0.2l2.3-2.4l1.1-0.3l1.5-0.1l0.6,0.8l0.1,0.2l0.4,1
	l-0.1,1.9l-0.2,0.3l-0.6,0.7l-0.1,0.1h-0.3l-0.2-0.1l-0.5-1.7l-0.6,0.3l-0.3,0.7l-0.6,1.3l-0.2,0.1l-0.6,0.1l-0.5,0l-0.8,0.1
	l-0.3,0.1L19.5,601.8L19.5,601.8z M14.7,586.3l-1.4-0.4l-0.3-0.1l-0.1-0.2l-0.8-2.3l0.1-0.3l0.6-0.7l0.5-0.3l0.2,0l0.2,0l0.4,0.3
	l0.1-0.6l-0.4-1.1l-0.4-0.3l-0.5-0.3l0-0.3l0.7-0.6l0.3,0l2.9,0.6l1.2,0.1l0.1,0.2l-0.1,0.3l-1.4,1.9l-0.2,0.1l-0.2,0L16,582
	l-0.2-0.1l-0.3-0.2l0,0.6l0.1,1.5l0.1,1.7l-0.2,0.7l-0.3,0.2l-0.2,0.1L14.7,586.3L14.7,586.3z M16.8,566.6l-0.2-0.4l-0.8-1l-0.3-0.1
	l0.1,0.7l0.1,0.4l0,0.2l-0.2,0.1l-0.3-0.1l-0.5-0.5l-0.3-0.3l-0.4-0.7l0-0.3l0.1-0.3l-0.8-0.6l-1.6,1.5l-0.3-0.1l-0.4-0.9l-0.1-0.2
	l-0.2-2.7l0.6-0.8l2.5-0.2l0.2,0l0.2,0.1l0.2,0.3l0.5,0.8l1.6,3.2l0.1,0.2l0.3,1.6L16.8,566.6L16.8,566.6z M19.8,616.5l-0.3-0.5
	l-1-2.9l1.2-3.3l0.2-0.3l0.4,0.5l0,0.2l-0.2,0.3l0,0.3l0.4,0.1l0.5-0.1l0.3-0.1l0.3-0.4l-0.4-2.8l-0.4-1.1l-0.4-0.2l-0.2-0.2l0-0.3
	l0.2-0.3l0.3-0.2l0.2-0.1l0.3-0.1l0.9,0.3l0.2,0.3l0.1,0.2l0.2,2l0.1,0.8l-0.2,1l-0.7,2.8l-0.8,2.3l-0.7,1.3l-0.2,0.3l-0.2,0.1
	L19.8,616.5L19.8,616.5z M15.7,548.6l-0.8-2.5l-0.1-0.3l-1.4,0.7l-0.5,0.9l-0.1,0.2l-0.2,0.2l-0.3,0l-2-1.6l-0.1-0.2l-0.1-0.2l0-0.4
	v-0.3l0-0.3l0-0.3l0.3-0.7l0.2-0.2l1.1-0.4l2.5,0.2l0.2,0.1l0.5,0.2l0.2,0.1l0.3,0.4l1.1,3.1v0.3l-0.5,0.6l-0.2,0.1L15.7,548.6
	L15.7,548.6z M20.1,552.9l-1.3-1.6l-2.1-0.7l-0.6-0.4l0-0.4l0.1-0.3l0.4-0.7l0.2-0.3l0.9-1.2l2.1,0.1l0.4,0.3l0.8,0.9l0.1,0.8l0,0.3
	l-0.5,3.6l-0.2-0.2L20.1,552.9L20.1,552.9z M15,605.4l-0.1-0.3l0-1.8l0.6-0.6l0.6-1l0.1-1.1l0-1.6l0-0.4l0-0.3l0.1-0.3l0.1-0.2
	l0.7-0.6l0.2-0.2l0.2,0l1.8,1.6l0.1,0.7l0,0.7l-0.1,0.3l-0.2,0.2h-0.2l-0.2-0.2l-0.3,0l-0.1,0.1l-0.9,2l0.1,0.4l0,0.4l0,0.4
	l-0.1,0.3l-0.2,0.4l-1.9,1.2l-0.2,0.1L15,605.4L15,605.4z M31.6,622.9l-0.6-0.5l-0.5-1l-0.1-1.8l0.1-0.2l0.2-0.2l0.2-0.1l0.3,0
	l0.3,0.2l0.2,0.2l0.4,0.2l0.2-0.1l-0.6-1.3l-0.1-0.2l-0.4-0.3l-1.2-0.4l-0.8,0.1l-0.2,0.1l-0.3,0l-0.3-0.1l-0.4-0.3l0-0.3l1-0.9
	l0.3-0.1l0.3-0.1l0.1,0l0.2,0.1l0.2,0.1l1.1,1l0.9,1l0.6,0.7l2.2,2.7l0,0.3l-0.6,0.5l-1.8,0.9l-0.5,0L31.6,622.9L31.6,622.9z
	 M12.1,552.8l-0.1,0l-1.6-0.9l-0.2-0.2l-0.1-0.2l0.8-1.5l0.8-0.5l0.2,0l0.3,0.1l0.7-0.7l0.4-1.1l0.7-0.9l0.3-0.2l0.3-0.1l0.2,0.1
	l0.2,0.5l0.5,1.5l0.1,0.3l-0.3,0.6l-0.2,0.4l-0.1,0.2l-2,2.2L12.1,552.8L12.1,552.8z M23.7,588.5l-1.1-0.1l-0.6-0.2l-1.5-0.5
	l-0.2-0.3l-0.4-1.6l0.1-0.8l0.1-0.3l0.9-1.1l1-0.3l0.2,0.1l0.9,0.8l1.2,2.6l0,0.3l-0.1,0.8l-0.2,0.5L23.7,588.5L23.7,588.5z
	 M31.3,612.7l-1-0.2l-2-1.2l-0.8-1l-1.1-3.1l1.8,0.6l2.9,2.3l1.2,0.8l0,0.3l-0.6,1.3l-0.1,0.2L31.3,612.7z M75.4,684.3l-0.2,0
	l-1-0.5l-0.8-0.7l-1.7,1.1l-0.2,0.1l-1-0.3l-0.7-1.5l0.8-1.4l0.7,0.1l2.2,0.5l0.9,0.3l0.4,0.3l0.5,0.2l0.3-0.1l0.3-0.2l0.2-0.3
	l0.2,0l0.7,0.5l0.4,1.2l-0.3,0.1l-0.5,0L75.4,684.3L75.4,684.3z M37.5,619l-0.1-0.2l-0.4-0.7l-0.6-1l-1-1l-0.3-0.2l-0.9-0.6
	l-1.8-1.1l-0.2-0.1l-0.3-0.2l0-0.8l0.3-0.9l0.5-0.4l0.2,0l0.3,0.2l2.4,2.2l0.7,0.7l0.5,0.5l0.1,0.3l0.7,1.7l0.3,1.3l0,0.4l-0.1,0.4
	l-0.2,0L37.5,619L37.5,619z M33.3,609.2l-0.3-0.1l-0.2-0.1l-2-1.5l-0.3-0.3l-0.2-0.3l0-0.4l0.1-0.2l0.7-0.1l0.6,0l0.7-1.3l-0.2-1.4
	l0.1-0.2l0.1-0.1l0.2,0l0.2,0.2l1.9,4.8l0,0.4l-0.2,0.2l-0.2,0.1l-0.4,0.2l-0.3,0.1l-0.1,0L33.3,609.2z M128.4,705.2l0-0.8l-0.1-0.1
	l-0.8-0.2l-0.8,0.2l-1.3-0.5l-0.1-0.6l0.2-1.2l1.6-1.8l0.8-0.4l0.3,0l1.2,3.7l0.2,1l-0.1,0.3l-0.3,0.3l-0.3,0.1L128.4,705.2
	L128.4,705.2z M21.2,617.1L21.2,617.1l-0.4-0.6l1.5-5l0.1-0.3l0.3-0.7l0.2-0.3l0.2-0.2l0.2,0l1.9,0.3l-0.1,0.3l-2.3,5.2l-0.1,0.2
	L21.2,617.1L21.2,617.1L21.2,617.1z M57.9,662.9l0.8,0.7l0.4,0.9l-0.6,1.3l-0.7,1.3l-0.3,0.1l-1.5,0.1l-0.5-0.1l-0.3-0.2l-0.2-0.2
	l-0.1-1l1.8-2.7l0.3-0.3l0.5-0.3l0.4,0l0.1,0.1L57.9,662.9L57.9,662.9z M35.9,622.9l-0.6-0.8l-0.5-1.3l-1.2-1l-1.1-1.4l-0.1-0.2
	l-0.1-0.5l0.2-0.3l0.5-0.3l0.2,0l0.7,0.5l0.6,1l2,1.1l0.3,0.3l0.2,0.3l0.1,0.3l0.4,1.6l-0.1,0.4l-0.2,0.3l-0.6,0.3l-0.4,0
	L35.9,622.9L35.9,622.9z M41.7,646.5l0.3,0.1l0.2,0.3l-1,1.4l0.9,1.3l0.1,0.4l-1.3,0.8l-0.3-0.1l-1.9-1.1l-1.8-1.3l-0.2-0.3
	l-0.3-0.5l0-0.3l0.2,0l0.5,0.6l0.5,0.4l0.3,0.2l0.2,0.1l0.1,0l0.6,0l1.2-0.5l0-0.3l-0.1-0.1l-0.4-0.2l0.2-0.9l1.6,0l0.2,0
	L41.7,646.5L41.7,646.5z M16.5,546.7l-0.3-0.6l-1.2-3.6l0.5,0l0.7,0.2l0.2,0.1l0.4,0.2l0.5,0.3l0.5,0.4l0.2,0.2l0.1,0.2l0.2,0.4
	l0.1,0.2l0.3,1.1l0,0.3l-0.1,0.2l-1.5,0.6l-0.3,0L16.5,546.7L16.5,546.7z M27.5,595.7l-1.9-0.9l-0.2-0.2l-0.4-1.2l0.1-0.6l1.5-1.1
	l0.2,0l0.2,0.1l0.2,0.3l0.9,1.8l0.1,0.2l0,0.3v0.6l-0.3,0.8l-0.2,0L27.5,595.7L27.5,595.7z M29.6,595.9l-0.6-3l-0.2-1.3l-0.1-2.1
	l0.1-0.2l0.4,0l0.3,0.6l0.9,2.8l0.5,2l0.1,0.8l-0.8,1l-0.2,0.1l-0.2,0l-0.1-0.2L29.6,595.9L29.6,595.9L29.6,595.9z M86.5,667.6h-0.2
	l-0.3,0l-1.9-0.8l-0.3-0.2l-0.6-0.8l-0.1-0.2l0-0.3l0.1-0.4l0.1-0.3l0.2,0l0.3,0.1l2.5,1l0.8,0.5l0.3,0.4l0,0.4l-0.2,0.3l-0.4,0.4
	l-0.2,0.1L86.5,667.6L86.5,667.6z M44,664.2l-0.9-0.5l-1.8-0.8l-0.2-0.3l1.1-1l0.5,0l0.5,0l1,0.1l0.2,0.1l0.8,0.4l0.1,0.3l0.2,1.2
	l-0.2,0.3l-0.3,0.1L44,664.2L44,664.2z M135,691.2l0.3,0.3l0.3,1.2l-0.2,0.6l-0.5,0.4l-0.3,0.1l-1.5-0.1l-0.7-0.1l-0.1-0.1l-0.2-1.2
	l0.4-0.7l0.3-0.2l1.1-0.4l0.4,0l0.3,0.1l0.2,0.1L135,691.2L135,691.2z M46.2,615l-0.1-0.5l0.1-0.4l0.1-0.3l0.1-0.2l0.6-1.3l0.1-0.1
	l1.1-0.6l1.1-0.4l-0.1,0.7l-1.4,2.9l-0.4,0.2l-0.8,0.3l-0.3,0l-0.2-0.1L46.2,615L46.2,615z M32.5,599.5l-0.2-0.1l-0.2-0.2l-0.2-1.5
	l0-0.2l0.2-1.1l0.1-0.2l0.2-0.1l0.3,0l1,0.2l0.4,0.2l0.1,0.3l0.2,1.2l0,0.5l-1.4,1.2L32.5,599.5L32.5,599.5z M17.6,543.3l-0.1,0
	l-1.5-1l0-0.3l0.9-1.1l1.5-1.7l0.2,0l0.1,0.3l0,0.2l0.1,0.4l0,0.3l0,0.3l-0.4,1.6l-0.4,1l-0.1,0.2L17.6,543.3L17.6,543.3z
	 M22.8,579.8l-0.3-0.1l-0.1-0.2l0.4-2.1l0.8-0.6l0.2-0.1l0.3,0l0.9,0.1l0.9,0.3l0,0.2l-0.2,0.3l-1.2,1l-1.2,1l-0.2,0.1L22.8,579.8
	L22.8,579.8z M27.5,560.2l-0.1-0.8l-0.2-2l0.1-0.9l0.1-0.3l0.2-0.1l0.9,0.8l0.4,0.3l0.1,0.2l0.6,1.4l-0.1,0.2l-1.8,1.5L27.5,560.2
	L27.5,560.2z M17.8,611.5l-0.1-0.1l-0.1-0.2L18,609l0.3-0.9l0.1-0.2l0.2-0.3l0.3-0.2l0.3-0.1l0.4,0.1l0.3,0.3l0,0.4l-0.1,0.9
	l-0.3,0.9l-0.2,0.7l-0.1,0.3l-0.2,0.2l-0.6,0.5l-0.3,0.1L17.8,611.5L17.8,611.5z M31.7,601.2l-0.9-0.5l-0.6-0.4l-0.2-0.2l-0.2-1.2
	l0-0.7l0.1-0.4l1.1-0.4l0.2,0.1l0.8,2l0.1,0.2l0,1.2l-0.1,0.3l-0.2,0L31.7,601.2L31.7,601.2z M139.1,692.5l-0.7-0.2l-0.1-0.2
	l-0.1-0.4l0-0.3l0.2-1l1.2-0.9l0.3,0l0.2,0l1,0.5l0.2,0.4l-1.3,1.7l-0.8,0.4H139.1L139.1,692.5z M83.9,681.4l0.3,0.1l0.3,0.1
	l0.3,0.5l-0.2,0.3l-0.2,0.1l-2.6,0.5h-1.1l-0.7-0.4l-0.2-0.3l0.2-0.2l0.5-0.3l1.5-0.4l1.1-0.1L83.9,681.4L83.9,681.4L83.9,681.4z
	 M18.5,586.5l-0.2-0.2l-0.1-0.2l-0.3-1l0-0.4l0.5-1.4l0.2-0.1l1.1,0l0.1,0.2l0,0.3l-0.1,3l-0.2,0.1l-0.5,0L18.5,586.5L18.5,586.5z
	 M55.5,671.4l-0.2-0.1l-0.7-1l-0.2-1l1.6-0.9l0.3,0l1.5,0.6l0.1,0.3l-0.1,0.5l-1,0.5l-0.2,0L55.5,671.4L55.5,671.4z M23.3,615.3
	l0.1-0.5l0.1-0.3l0.2-0.2l2.2-2.2l0.5,0.3l0.3,0.4l0,0.7l-0.2,0.5l-0.8,0.6l-1.7,1l-0.6,0.3l-0.1-0.1L23.3,615.3L23.3,615.3z
	 M85.5,664.7l-0.2,0l-1.3-0.9l-0.4-0.4l-0.2-0.3l-0.1-0.3l0.1-0.2l0.1-0.1l2.4-0.5l0.1,0.2l0.2,0.5l0.1,0.5l-0.3,1l-0.2,0.5
	l-0.2,0.2L85.5,664.7L85.5,664.7z M35.9,651.1l-0.2-0.1l-0.3-1.2l0.2-1.9l0.1-0.2l0.2,0l1.8,1.3l0.3,0.3l0,0.3l-0.1,0.2l-1.4,1
	l-0.2,0.1l-0.2,0.1L35.9,651.1L35.9,651.1z M42,636l-0.4,0l-0.2,0l-0.5-0.5l-0.1-0.2l0.1-0.3l0.2,0l0.1-0.1l-0.5-0.3l-0.6-0.2
	l-1.1-0.1l-0.3,0l-1.3,0.3l-0.3,0.2l-0.1-0.2l0.8-0.7l1.8-0.4l2.1,0.6l0.2,0.1l0.6,0.7l-0.2,1L42,636L42,636z M36.5,609.6h-0.1
	l-0.3-0.1l-0.3-0.2l-0.1-0.2l-1.2-2.5l0-0.5l0.1-0.2l0.3,0l0.9,0.5l0.7,1l0.4,1l0,0.3L36.5,609.6L36.5,609.6z M124.5,708l-0.5-1.2
	l-0.2-0.1l-0.8,0l-1.7,0.5l-0.2-0.1l-0.1-0.2l0-0.4l0.2-0.5l0.5-0.1l0.2,0l0.4,0.1l0.3,0.1l0.6,0.1l1.5,0l0.5-0.4l0.2-0.1l0.6,0.2
	l0.2,0.3l-0.4,1.2l-0.2,0.2l-0.7-0.2l-0.2,0L124.5,708L124.5,708z M133,685.3l0.7,0.2l1.5,0.6l0.2,0.2l0.6,1.9l-0.2,0.1l-0.3-0.1
	l-3.2-2.2l-0.2-0.3l0.1-0.3l0.1-0.1l0.3,0L133,685.3L133,685.3z M23,621.1l-0.9-0.9l-0.1-1.2l2.5-0.6l0.3,0.1l0.1,0.2l-1,1.9
	l-0.4,0.3l-0.3,0.1L23,621.1L23,621.1z M36.6,599.4l-1-0.2l-0.1-0.1l-0.4-0.3l-0.3-0.9l0.1-0.2l0.3-0.4l0.6-0.5l0.2-0.1l0.3,0.1
	l0.3,0.2l0.2,0.2l0.1,0.2l0.1,0.2l0.1,0.4l0,0.5l-0.2,0.9L36.6,599.4L36.6,599.4L36.6,599.4z M19.3,541.3l-0.3,0l-0.2-0.2l0-0.3
	l0.5-1.3l0.2-0.3l1.2,0l0.7,0.1l0.4,0.2l-1.3,1.3l-0.2,0.2l-0.2,0.1l-0.4,0.1L19.3,541.3L19.3,541.3z M22.6,618.1l-0.3-0.1l-0.1-0.2
	l-0.1-0.2l0-0.5l0.2-0.5l2.5-1.5l0.2,0.5l-1.2,2l-0.9,0.4l-0.3,0.1L22.6,618.1L22.6,618.1z M122.8,701l-0.1-0.2l0.5-2.6l0.2-0.3
	l0.3-0.2l0.2,0l0.2,0.3l0.2,0.2l0.2,0.3l0.1,0.2l0.2,0.4l0,0.9l-0.7,0.6l-0.3,0.2l-0.4,0.1L122.8,701L122.8,701z M88.2,685.6l-0.2,0
	l-0.2-0.1l-0.2-0.2V685l0.2-0.2l0.2-0.2l2-1.1l0.2-0.1l0.2,0l0.1,0.1l0.2,0.3l0,0.4l-0.5,0.8l-1.3,0.5L88.2,685.6L88.2,685.6z
	 M32.8,643.1l-0.1,0.3l-0.6,1.1l-0.4,0.3l-0.9,0.3l-0.3,0l-0.1-0.1l-0.3-0.3l0-0.3l0.8-0.8l0.6-0.5l0.6-0.5h0.2l0.2,0.1l0.3,0.3
	L32.8,643.1z M129.7,707.8l-1.5-0.8l-0.9-0.7l0.1-0.3l0.2-0.1l0.3-0.1l0.8,0.1l1,0.3l0.5,0.7l0,0.9L129.7,707.8L129.7,707.8z
	 M35.6,611.5l-1.1-0.2l-0.2-0.2l-0.1-1.1l0.4-0.9l0.2-0.1l0.2,0l0.2,0.2l0.1,0.2l0.3,0.3l0.6,1l-0.1,0.3l-0.3,0.3L35.6,611.5
	L35.6,611.5z"/>
<path id="TARAPACA" class="st0" d="M86.5,26.5l2.3-0.1L91,25l2.2-1.7h3.9l2.2,1.7l2.2-0.3l0.3-1.7l1.4-1.4h2.2l0,0l-0.2,0.4l0.9,1.7
	l1.7,1.2l0.6,0.5l1.2,1.3l0.2,0.2l0.5,0.2l0.4,0.1l0.4,0.2l0.8,0.8l0.7,1l-1.5,1.6l-0.3,0.4l-0.4,0.6l-1.2,1.4l0,0.6l0.9,0.7
	l0.8,0.7l0.6,1.3l-0.8,2.1l-0.5,0l-0.6,0.1l-1.8,0.5l-0.1,0.4l0.3,0.3l0.7,1.5l0.3,1.5l-0.5,0.2l-0.3,0.3l0,0.8l0.2,0.4l0.2,0.3
	l0.5,0.5l0.4,0.3l0.5,0.2l0.4,0.2l0.4,0.1l0.3,0.1l0.8,0.6l0.4,0.4l-0.1,0.3l-0.5,0.3l-0.3,0.2l-0.5,0.7l0,2.1l0.1,0.3l0,0l0,0
	l-1.1-0.1l-2.6-0.3l-1.3,0.2l-0.3,0.1l-0.3,0.2l-0.2,0.4l0.2,0.3l0.4,0.2l1.1,0.4h0.4l0.4,0l0.8-0.2l0.4,0.1l0.2,0.4l-0.1,0.7
	l-0.1,0.4l-0.6,1.1l-0.2,0.4l-0.2,0.4l-0.1,0.4v0.5l-1.3,0.6l-1.8,0.2l-3.8,1.2l-4.6,1.1l-1.1,0.2l-1-0.4l-0.9-0.2l-1.6-0.2l-0.4,0
	L90,59.2l-0.2,0.1l0,0l-0.5-0.9L89.2,58l0.3-0.5l-0.8-3l-0.3-0.8l-0.3-0.7l0.2-0.8l0.3-0.5l-0.1-0.8l-0.2-0.4L88,50.3l-0.5-0.5
	l0.6-6.2l0.4-1.4l0.1-0.4L88.2,41l0.2-1.1l0.2-0.4l0.1-0.4l0-1.2l0-0.4l-0.2-1l-0.5-4l-0.4-2.3l-0.5-1.8l-0.6-1.1L86.5,26.5z"/>
<path id="ANTOFAGASTA" class="st0" d="M111.8,51.9l0.4,0.1l0.4,0l0.4,0l2.8,4.5l0.6,1l0,4.8l0.2,0.3L117,63l0.2,0.5l0.2,0.7l0.2,1.1
	l0,0.3l0,0.6l0,0.5l0,0.7l1.3,1.3l0.3,0.2l0.4,0.7l0.3,2.1v0.5l-0.1,0.4l0.6,1.9l0.6,2l-0.5,2.4l0.1,1.8l1.2,0.8l3,0.4l3.5-0.7
	l2.2-0.5l1.1,1.2l1.5,1.6l-0.7,1.9l-0.7,1.8l-0.6,1.8l-0.2,0.5l-2.6,9.7l-4.3,1.9l-3.7,1.7l-4.1,1.8l-0.9,0.4l-0.3,0.8l-0.6,0.8
	l-0.7-0.1l-0.3,0.2l-1,1.6l-0.6,1l-0.5,0.9l-0.4,0.8l0,0.5l0.3,0.9l0.7,0.4l2.1,3.5l-0.9,0.5l-0.9,0.2l-0.2,0.1l-0.3,0.4l-0.3,1.1
	l0,0l-0.8,0l-0.6,0.2l-0.5,0.3l-0.6,0.5l-0.5,0.4l-0.3,0.3l-0.3,0.1l-0.7,0l-0.5-0.1l-0.5,0.1l-0.5,0.2l-0.4,0.2l-0.3,0.2l-0.7,0.6
	l-0.3,0.8l-0.1,1.1l-0.3,0.6l-0.3,0l0.1,2.8h-4.2l-0.6,1.7l-1.4,0.3l-1.4,1.7l-2.2-1.7l-1.1-1.5l-0.2,0l-1-0.1l-0.4-0.1l-0.5,0
	l-0.5,0.2l-0.3,0.2l-0.5,0.3l-0.3,0.3l-1.8,1.1l-1,0.1l-1.3,0.2l-0.6,0.1l-0.4,0.1l-0.4,0.1l-0.3,0.1l-0.3,0.2l-0.8,0.6l-0.7,0.9
	l0,0l0.4-0.7l0.1-0.3l0-0.5l-0.3-0.9l-0.4-0.4l-0.3-0.3l-0.5-1.2l0.5-1.7l0.2-0.7l0.7-1.5l0.8-1.1l0.5-0.4l1.2-1.7l0.2-1.7l0-0.9
	l-0.3-0.9l-0.7-0.9l0.1-2.1l-0.5-0.9l-0.3-0.8l-0.5-2l0.2-2.5l0.3-2.5l0.1-0.8l-0.2-0.3l0.3-1.3l0.2-0.8l0.2-0.3l0.1-1.1l-0.1-0.9
	L83.1,99l0-0.5l0.1-1.9l0.2-1.1l0.4-0.6l0.4-0.3l0.2-0.4l0.3-0.7l0.1-0.4l0.1-0.4l0-0.6l-0.1-0.5l-0.2-0.5l-0.2-0.2L84,90.5
	l-0.4-0.2l-0.3,0.1l-0.4,0.9l-1.2-0.2l0.3-1.9l0.1-2.3l0.3-2.5l0.5-0.6l0.5-0.2l0.1,0.7l0.3,0.4l0.8-0.2l0.5-0.2l0.3-0.3l0.2-0.3
	l0.2-0.3l0.4-1l0.3-0.8l-0.1-0.4l-0.1-0.3l-0.1-0.7l0.4-2.2l0.4-3l0.2-2.1l0.3-2.3l0.2-1l0.3-1.1l0.5-3.9l-0.1-0.5l0-1l0.3-0.8
	l0.7-0.6l0.1-0.8l0.5-1.6l0,0l0.2-0.1l1.5-0.1l0.4,0l1.6,0.2l0.9,0.2l1,0.4l1.1-0.2l4.6-1.1l3.8-1.2l1.8-0.2l1.3-0.6v-0.5l0.1-0.4
	l0.2-0.4l0.2-0.4l0.6-1.1l0.1-0.4l0.1-0.7l-0.2-0.4l-0.4-0.1l-0.8,0.2l-0.4,0h-0.4l-1.1-0.4l-0.4-0.2l-0.2-0.3l0.2-0.4l0.3-0.2
	l0.3-0.1l1.3-0.2l2.6,0.3l1.1,0.1l0,0l0.1,0.2l0.3,0.3L111.8,51.9z"/>
<path id="ATACAMA" class="st0" d="M110.8,119.8l-0.3,1.2l-0.1,0.3l0,0.5l0,0.4l0.6,1.9l0.8,1.6l0.1,0.4l0.5,2.5l0.8,4L113,133
	l-0.9,0.8l-0.6,0.4l-0.4,0.3l-0.3,0.4l-0.2,0.7l0,0.5l-0.1,0.9v0.3l0,0.8l0.1,0.3l0.1,0.3l0.4,0.6l1.5,1.8l2,3.1l0.1,0.3l-0.5,1.8
	l-0.4,0.3l-0.5,0.3l-0.3,0.1l-3.3,1.1l-0.7-0.5l-0.6-0.1l-0.6,0l-0.4,0.2l-0.6,0.9l-0.3,0.5l-0.2,0.5l0.1,0.6l-0.5,1.4l-2,3.8
	l-0.4,0.5l-0.6,1.6l-0.1,0.7l-0.5,2.1l-0.1,0.4l-0.2,0.4l-0.2,0.3l-0.4,0.1l-0.5,0.1l-0.5,0.3l-0.4,1l-0.2,0.7l-0.2,0.4l-0.7,0.9
	l-1.9,2.1l-1,0.9l-0.7,0.5l-0.1,2.3l-0.1,0.6l-0.5,0.3l-0.6,1.3l0,0.8l0.1,0.4l0.1,0.4l0.1,0.5L94,176l-0.5,2.1l0,0.9l-0.1,0.4
	l-0.2,0.3l-0.5,0.3l-0.9,0.1l-0.8,1l-1,1.5l-0.1,1l0.1,0.4l0.4,0.8l0.5,1.8l0,0.2l0,0l-1.7-0.2l-2.5-1.1l-1.1-0.6l-2-0.6l0.1-0.4
	l0-0.6l-0.2-0.7l-0.2-0.3l-1.9-2.2l-0.3-0.3l-0.4-0.4l-0.5-0.3l-0.4-0.3l-0.5-0.1l-1.1,0.9l-0.6,1.1l-1.1,2.8l-2.2,0.3l-1.1-1.7
	l-0.9-2l-0.2,0.1l-0.3,0.1l-1.7,0.4l-0.5,0.1l-0.5,0l0,0l0.2-1.2l-0.4-2.1l0-1.3l0.1-0.4l0.5-0.6l1.3-1.3l1.2-1.4l0.1-0.9l0.1-1
	l0.3-0.7l0.4-0.6l1-2l0.1-1.8l0-1.3l0.2-3.1l0.5-1.9l0.3-0.9l0.5-1l0.5-0.7l0.6-0.3l0.7-0.6l0.3-2.2l-0.2-0.9l-0.4-1.6l-0.4-2.5
	l0.1-0.4l0.2-0.4l0.3-0.3l0.8-0.2l0.7-1l0.4-0.8l-0.2-1l-0.2-0.5l-0.1-0.4l1.7-4.3l0.1-0.5l0.2-2l0.6-2.1l-0.4-1.6v-0.5l0.1-1.3l0,0
	l0.7-0.9l0.8-0.6l0.3-0.2l0.3-0.1l0.4-0.1l0.4-0.1l0.6-0.1l1.3-0.2l1-0.1l1.8-1.1l0.3-0.3l0.5-0.3l0.3-0.2l0.5-0.2l0.5,0l0.4,0.1
	l1,0.1l0.2,0l1.1,1.5l2.2,1.7l1.4-1.7l1.4-0.3l0.6-1.7h4.2l-0.1-2.8l0.3,0l0.3-0.6l0.1-1.1l0.3-0.8l0.7-0.6l0.3-0.2l0.4-0.2l0.5-0.2
	l0.5-0.1l0.5,0.1l0.7,0l0.3-0.1l0.3-0.3l0.5-0.4l0.6-0.5l0.5-0.3l0.6-0.2l0.8,0l0,0l-0.1,0.1l-0.3,0.6L110.8,119.8z"/>
<path id="COQUIMBO" class="st0" d="M69.3,180.9l0.5,0l0.5-0.1l1.7-0.4l0.3-0.1l0.2-0.1l0.9,2l1.1,1.7l2.2-0.3l1.1-2.8l0.6-1.1
	l1.1-0.9l0.5,0.1l0.4,0.3l0.5,0.3l0.4,0.4l0.3,0.3l1.9,2.2l0.2,0.3l0.2,0.7l0,0.6l-0.1,0.4l2,0.6l1.1,0.6l2.5,1.1l1.7,0.2l0,0l0,0.1
	l0,0.7l-0.1,0.4l-0.1,0.4l0.1,0.4l0.2,0.3l0.5,0.3l0,0.1l0.1,1.3l0,1.9l-0.2,0.9l-0.1,0.4l0.9,1.7l0.3,0.3l0.2,0.4l0,0.8l-1,2.2
	l-0.6,0.8l-0.8,0.4l-0.5,0.1l-0.3-0.1l-1.2,0.7l-1.1,2l-0.6,1.3l-0.2,0.7l-0.7,2.4l-0.2,1.1l-0.1,0.7l0,0.4l0.5,0.6l0,0.6l-1,1.1
	l-1,0.3l-0.3-0.3l-1,1.1l-0.2,0.4l-0.4,2.3l-0.1,2.4l-0.2,1l-0.1,0.6l1.8,4.5l0.2,0.3l0.2,0.3l0.3,0.2l0.5,0.1l1-0.1l0.3,0.2
	l0.7,0.8l0.1,0.4l-0.5,1.3l-0.6,0.1l-0.6,0.6L86,231l-0.1,0.6l0,0l-1.3,0.2l-0.4-0.2l-0.1-0.4l-0.2-0.8l-0.4-0.3l-0.4-0.1l-0.3,0
	l-0.4,0l-0.7-0.1l-0.7-0.5l0-0.4l0-0.6l-1-0.6l-4.3,0.1l-0.4,0.7l-0.7,0.8l-0.3,0.2l-3,0.7l-0.6,0l0,0l-0.4-0.1l-0.7-0.3l0,0l-0.4,0
	l-0.3,0.2l-0.3,0.3l0,0l0.1-1.6l0.2-0.8l0.1-0.4l0.1-0.7l0-1.4l-0.1-2l-0.4-1l-0.3-1.7l0-1l-0.1-0.4l-0.7-3.4l-0.5-2.2l-0.1-0.3
	v-0.5l0.2-0.9l0.1-1.5l-0.2-0.6l-0.2-0.4l-0.1-0.4l-0.3-2.4l0-1.7l0-1.6l0-0.9l0.3-2.7l0.5-1.1l0.4-0.2l0.2,0.3l0.5,0.2l0.3,0
	l0.5-0.3l1.5-1.5l0.3-0.5l0.7-3.3l0.7-0.7l0-1.2l-0.4-0.4l-0.3-1l0.1-3.2l0.2-1.2l0.2-0.6l0-0.4l-0.5-1.5l-0.2-0.3l-0.3-0.3
	l-0.8-0.6l-0.3-0.2l-0.3-0.2l-0.2-0.4L69.3,180.9z"/>
<path id="RM" class="st0" d="M89.8,265.8l0-0.4l-0.1-0.3l-0.4-0.3l-0.7-0.3l-0.5-0.5l-0.1-0.4l0-1.1l-0.2-0.7l-0.3-0.2l-0.4,0
	l-0.4,0.3l-0.3,0.1l-1-0.3l0.1-0.9l-0.6-1.9l-0.3-0.3l-0.5-0.2h-0.5l-1.7,0.6l-0.6,0.4l-1,0.1l-0.4-0.1l-1.2,0.7l-1.9,2.2l-0.1,0.4
	l0,0.7l-1.2,0.3l-1.4,0l0,0l-1.2-1.7l-1.8-0.8l-0.9-1.7l-2.3,0.1l-1.4-0.6l0,0l0.8-0.5l0,0l0.5-1.6l0.3,0l0.8,0l0.7,0.2l0.5,0
	l0.7-0.8l0.6-2.3l-0.5-1.3l-0.2-1.2l0-0.3l0.4-0.2l1-1l0.4-0.6l0.1-0.4l0-1.2l0.2-0.4l0.9-0.1l0.9,0l1-0.7l0-2.1l-0.2-0.8l0.1-0.6
	l0.3-0.1l1.6-0.6h2l1.3,0.3l0.7,0.3l0.6,0.6l0.2,0.7l0.5,0.7l0.3,0l0.9-0.8l0.3,0l1,1.1l1.5,0.6l1.2-1l0.7-0.4l0,0l0.2,0.4l-0.1,0.8
	l-0.1,0.5l0.1,0.4l1.3,2l0.3-0.1l0.3-0.5l0.4-0.4l0.3-0.1l0.4,0.1l1,0.6l0.4,1.8l-0.1,0.4l-0.4,0.4l-0.9,2l-0.5,3.8l0,0.8l0.3,1.1
	l0.5,3.5l0.4,2.4l-1,0.8l-0.7,0l-0.3-0.1l-0.4,0l-0.6,0.1L89.8,265.8z"/>
<path id="VALPARAISO" class="st0" d="M70.7,230l0.6,0l3-0.7l0.3-0.2l0.7-0.8l0.4-0.7l4.3-0.1l1,0.6l0.1,0.6l0,0.4l0.7,0.5l0.6,0.1
	l0.4,0l0.3,0l0.4,0.1l0.4,0.3l0.2,0.8l0.1,0.4l0.4,0.2l1.3-0.2l0,0l0.1,0.3l1,0.4l0.2,0.5l1.1,2.3l0.1,0.5l-0.1,0.6l0.6,0.6l0.9,0.9
	l1.3,1.7l0.1,1.4l-0.6,1l-0.4,1.3l-0.7,1l-0.4,0.8l0,0l-0.7,0.4l-1.2,1.1l-1.5-0.7l-1-1.1l-0.3,0l-0.9,0.8l-0.3,0l-0.5-0.7l-0.2-0.7
	l-0.6-0.6l-0.7-0.3l-1.3-0.3h-2l-1.6,0.6l-0.3,0.2l-0.1,0.6l0.2,0.8l0.1,2.2l-1,0.7l-0.9,0l-0.9,0.2l-0.2,0.4l0,1.2l-0.1,0.4
	l-0.4,0.6l-1,1l-0.4,0.2l0,0.3l0.2,1.2l0.5,1.3l-0.6,2.4l-0.7,0.8l-0.5,0l-0.7-0.2l-0.8,0l-0.3,0l-0.5,1.6l0,0l-1.3,0.9l0,0
	l-0.5,0.6l-0.5-0.1l-0.5-0.1l-0.4-0.3l-0.7,0l0,0l0.4-1.6l0.5-1.2l0.4-0.1l0.5-0.1l0.4-0.2l0.5-0.4l0.3-0.7l0.1-0.3l0.1-0.5l0.1-1.3
	l-0.8-3.2l-0.2-2l-0.7-2.6l0.1-0.3l0.7,0l1.8-1.4l0.7-1.9l0.3-2.3l0.6-1.2l0.2-0.5l0.1-0.5l0-2.4l0.5-1.7l-0.9-1.6l-0.6-0.9l-0.4-1
	l0,0l0.3-0.4l0.3-0.2l0.4,0l0,0l0.6,0.3L70.7,230L70.7,230z"/>
<path id="ARAUCANIA" class="st0" d="M40.7,336.8L40.7,336.8l0.3,0.2l0.4,0.2l1.2,0.8l3.7-3.7l0.2-0.5l0.1-0.4l0.1-0.5l-0.3-0.4
	l-0.5-0.3l-0.5-1.4l1.7-2.6l0.4-0.5l0.2-1.6l-0.2-0.4l-0.9-0.1l-0.3-0.4l1.3-1.6l2-0.3l0.6,0.3l0.6,0.4l0.5,0.3l2,0.5l1.2,0l0.9,1
	l0.4,1l0.9,1.3l0.7,0.4l0.3,0.1l0.5,0.1l0.5,0.1L59,329l1.2,1l0.2,0.4l0.5,0.6l0.3,0.2l2.1,0.4l1.8-0.2l0.4-0.1l0.5,0.2l0.5,0.7v0.7
	l-0.1,0.5l0,0.6l0.1,0.4l0.3,1.1l0.2,0.4l0.5,0.4l0.2-0.5l0.2-0.5l0.2-0.3l1.3-0.6l0.9-0.5l0.2-0.2l0.2-0.6l1.5-0.3l3.3-0.1l0.9,0.1
	l0,0l0,0.8l-0.2,1.3l0.2,1l0.5,2.4l0.3,0.6l0.6,0.6L78,340l0.5,0.4l0.3,0.6l-0.1,0.6l-0.5,1.9l-0.9,0.9l-0.3,0.1l-0.7,0l-0.5,0
	l-0.4,0.1l-0.6,0.3l-2,1.2l-1.3,0.8l-0.4,0.2l-0.5,0.5l-0.2,0.4l-0.1,0.5l-0.1,1l0,0.5l0.1,0.5l0.1,1.2l0.2,2l-0.2,1.6l-0.7,1.9
	l-0.5,2.3l-0.1,0.7l-0.2,0.3l-1.3,0.1l-0.4-0.2l-0.6-0.8l-0.2,0l0,0l0-0.4l-0.1-0.5l-0.2-0.4l-0.3,0l-1,0l-0.8-0.6l-0.4-0.4
	l-0.5-0.3l-0.4-0.1l-2.3-0.2l-0.4,0.1l-0.4,0.2l-0.4,0.4l-0.3,0.3l-0.4,0.2l-1.3,0.5l-0.5-0.1l-0.7-0.3l-2.1-0.7l-0.4,0l-1.1,0.2
	l-0.4,0l-0.4,0l-0.4-0.1l-0.4-0.3l-0.4-0.5l-0.4-0.8l-0.2-1l-0.3-0.3l-2.1,0l-0.7,0.9l-0.3,0.5l-0.4,0.4l-0.4,0.2l-0.4,0l-0.4,0
	l-0.4-0.1l-0.5-0.1l0,0l0.4-0.6l-0.1-2l-0.8-2.8l-2.5-7.2l-0.8-2.8l-0.3-2.2l0-0.6l0.3-1L40.7,336.8z"/>
<path id="OHIGGINS" class="st0" d="M67.1,259.3l1.4,0.6l2.3-0.1l0.9,1.7l1.8,0.8l1.2,1.7l0,0l1.4,0l1.2-0.3l0-0.7l0.1-0.4l1.9-2.2
	l1.2-0.7l0.4,0.1l1-0.1l0.6-0.4l1.7-0.6h0.5l0.5,0.2l0.3,0.3l0.6,1.9l-0.1,0.9l1,0.3l0.3-0.1l0.4-0.3l0.4,0l0.3,0.2l0.2,0.7l0,1.1
	l0.1,0.4l0.5,0.5l0.7,0.3l0.4,0.3l0.1,0.3l0,0.4l0,0l-0.1,0.2v1l0.1,0.8l-1.5,2.3l-1.2,2.2l-0.9,3.3l-0.9,2.5l0,0l-0.1,0l-0.8-0.1
	l-2.6-0.3l-1.6-1.2l-0.6-0.6l-0.3-0.2l-4-1.2l-0.5-0.1h-0.4l-2.5,0.2l-1.2,1l0,0.4l0.1,0.6l-2.2-0.4l-2.2-0.1l-1.5-0.4l-2-0.8
	l-0.5-0.7l-0.8-1l-0.3-0.2l-0.4-0.2l0,0l0.1-0.7l0.2-2.3l-0.1-1l0-0.7l0.3-0.5l0.5-0.3l0.1-0.4l0-0.9l-0.1-1.3l-0.3-0.4l-0.1-0.3
	l0-0.6l1.7-3.1l0.4-0.5l0,0l0.7,0l0.4,0.3l0.5,0.1l0.5,0.1l0.5-0.6l0,0L67.1,259.3z"/>
<path id="LOS-LAGOS" class="st0" d="M24.6,435.9l-0.3,0.3l-0.3,0l-0.4,0l-0.2,0l-0.3,0.1l-0.2,0.1l-0.5,0.4l-0.1,0l-0.2-0.1
	l-0.5-0.8l-0.1-0.2l-0.1-0.2l-0.1-0.2l0-0.3l1.2-0.6l0.2,0l1.2,0.6l0.1,0.1l0.3,0.4L24.6,435.9L24.6,435.9z M41.9,415l0,0.7l-0.3,0
	l-0.1-0.5l-0.1-0.2l-0.1-0.2l-0.2-0.2l-1.3-0.7l-0.2-0.1l-0.5-0.1l-0.2-0.1l-0.4-1.1l0-0.2l0.2-0.1l0.3,0l0.5,0l0.3,0.1l0.3,0.2
	L41.9,415L41.9,415z M35.2,401.6L35,402h-0.4l-0.4-0.3l-0.3-0.1l-0.2,0.4l0.5,0.5l1.3,0.5l0.4-0.3l0.6-0.4l1.5-0.9l1.4-0.2l0.4,0
	l1,0.7l-0.3,2.5l1.1,1.7l-0.2,0.6l-0.4,0.1l-0.1,0.4l0.2,0.5l1,0.6l0.4,0.1l0.4,1.1l-0.2,0.7l-0.2,0.4l-1.5,0.4l-0.8-0.1l-0.3,0
	l-1,0.5l-0.3,0.2l-0.2,0.4l-0.1,1.6l0.5,0.5l0.4,0.2l0.2,0.3l-1.5,0.6l-0.8-0.7l0.3-0.8l-0.5,0.1l-0.4,0.8l0.2,1.8l2.7,2.7l0.7,0.2
	l0.8,0.6l0.2,0.3l0.2,1l-0.1,0.4l-1.1,0.2l-0.5,0l-0.5,0.3l-0.1,0.8l0.4,0.5l0.7,0.6l0.1,0.3l0.5,0.9l0.4,0.5l0.2,0.6l-0.3,0.3
	l-3.2-0.3l-0.6,0.2l0.2,1.6l0.3,0.4l0.4,0.3l0.3,0.7l-0.3,1.7l-0.3,0.1l-1.9,0.4l-0.5-0.4l-0.4-0.4l-0.4-0.1l-1.3-0.1l-1.5-0.2
	l-1.8-0.5l-1.3-0.7l-0.3-0.2l-0.2-0.4l1-2.7l1.4-1.6l-0.2-0.6l0.4-0.4l0.6-1.6l0.5-4.6l-0.1-1.4l-0.3-1l-0.3-0.2l-0.4-0.3l0.3-1.6
	l0.3-3.5l0.1-0.3l0.3-0.4l0.3-0.4l0.7-0.6l0.4-1.5l0.5-2.9l-0.5-1.1l-0.2-0.4l0-0.4l0.5-0.8l1.7,0.1L35.2,401.6L35.2,401.6z
	 M37.2,372.4l4.3,0.4l0.8,1.4l1.4,0.3l2.2-1.7l2.2,0.8l1.4,2.5l2,1.4l2.5,2.2l2.8,1.1l1.7-2l1.1-1.7l2.2-0.3l2.6,0.4l0,0l0,0.8
	l0,0.5l-0.3,0.8l-0.3,0.4l-0.3,0.3l-0.4,0.4l-0.3,0.5l0.5,1.5l0.9,2l0.2,0.8l-0.3,1l0.3,0.9l-0.3,3.4l-0.1,0.5l-0.3,0.5l-0.2,1.2
	l0.1,0.6l0.4,0.9l0.3,2.2l-0.6,1l-0.3,0.4v0.5l0.9,2.2l0.9,1.8l0.2,0.5l0.2,1.1l0,1l0.4,0.6l0.1,1.3l-0.7,0.7l-1.8,0.9l-0.4-0.1
	l-0.1-0.5l-0.2-0.3l-0.5-0.1l-0.3,0.2l-0.3,0.3l-1.3,2.6l0.3,0.6l0.7,0.6l0.2,0.4l-1,3l-0.2,0.4l-0.1,0.4l-0.1,0.4l0.2,1.5l0.3,1
	l0,0.8l0.1,1.8l0,0.5l-0.1,0.6l-0.2,0.4l-0.1,0.4l0,1l0.3,0.6l0.6,1l0.4,0.3l0.8,0.3l0.6,0l0.4,0l0.9,0.1l0.5,0.1l1.4,0.8l0.1,2
	l-0.1,0.4l-0.3,0.2l-0.5-0.1l-1.4,0.5l-0.5,1.2l-0.1,1.3l1.2,0.9l2.1,2l0.2,1.3l-0.2,0.5l-0.9,0.6l-0.3,0.1l-0.3,0.2v0.6l0.7,1.1
	l0.8,0.9l0,0l-1.1-0.5l-0.5,0l-2,1l-0.2,0.8l-2,0.2l-0.1-0.8l-0.3-0.5l-0.5-0.6l-0.4-0.3l-0.6-0.1l-0.3-0.1l-1.1-1.8l-0.1-0.8
	l-0.7-0.3l-0.5,0.3l-0.6,0.6l-0.5,0.7l-0.2,0.8l-2.8-0.5l-0.9-0.2l-0.3-0.2l-0.9,0l0,0V438l-0.2,0.7l0,0l-0.2,0l-0.4-0.1l-0.5-0.6
	l-0.7,0.1l-0.6,0.4l0,0l-0.1-0.7l0.1-2.3l-1-2.3l-0.1-0.5l0.5-2.5l0.3-0.4l0.5-0.4l0.4-0.3l0.3-0.2l0.3-0.1l0.5-0.2l0-1.4l-0.3-0.8
	l0.1-0.5l0.6-1.1l0.5-0.6l0.5,0l1,0.7l0-2.6L51,422l-0.4-0.3l-0.4-0.4l-0.2-0.6l-0.2-1.1l0-1l0.1-2.7l0.5-1.3l0.3-0.1l1.3,0.1
	l0.4,0.1l0.3,0.4l1.1,0.7l0.4,0.1l0.2-0.2l-0.4-0.6l-0.7-0.2l-0.5-0.2l-0.6-0.5l-2.3-3.6l0.7-0.8l0.7-0.5l2.1-0.7l0.5,0.3l0.4,0.8
	l0,0.4l1.3,3.8l0.3,0.2l0.2-0.4l-0.1-1.4l-0.5-2.5l-0.2-0.8l-0.2-1.4l0-0.5l0.1-0.7l0.1-0.5l0.1-0.5l0-0.6l-0.3-0.2l-0.6,0l-0.5,0.6
	l-0.9,0.5l-1.8-0.3l-1.1-0.6l-0.6-0.8l0.1-0.5l0.8-1.2l2.2-2.2l0.6,0l0.5,0.1l1.5-0.4l1-0.5l0.8-0.7l0.3-0.3l0.3-3.8l-0.5,0.2
	l-0.5,3.4l-0.3,0.6l-1,0.5l-1.5,0.5l-0.5,0l-0.3-0.1l-0.6-0.5l-0.4-1.3l-0.5-0.7l-0.9-1.1l-0.5-0.3l-1.3-0.3l-1.1,0.3l-0.5,0.2
	l-0.9,1.4l0.2,0.8l0.3,0.3l0.2,1.1l-1,1l-0.9,0.7l-0.5,0.1l-1-0.2l-0.5-0.1l-0.9,0l-0.3,0.1l-0.7,0.3l-0.4,0.1l-0.2,0l-0.9-0.6
	l-1.7-0.3l-0.7,0l0.2-1.5l0.6-1l0.3-0.2l0.5,0l0.5,0.1l0.5-0.2l0.9-1.7l-0.4,0.4l-0.3,0.6l-0.3,0.4l-0.4,0.1l-1.7-0.2l-0.9-0.6
	l-1.3-1.6l0-0.7l0.3-0.6l0-1.3l-0.2-0.7l-0.5-1.4l-0.5-0.6l-0.2-0.5l-0.3-1.8l-0.3-2.1l0.7-2l1.6-4.4l0.6-0.9l0.6-1.3l-0.1-0.7
	l-0.4-1L37.2,372.4L37.2,372.4z"/>
<path id="MAULE" class="st0" d="M76.1,303.9L76.1,303.9l-0.5-0.5l-0.2-0.6l-0.1-0.5l-0.5-0.3l-0.3,0l-0.3,0.2l-1.1,1.4l-0.1,0.5
	l0,0.4l-0.4,0.5l-0.6-0.1l-1.4-0.8l-0.3-0.3l-1.5-1.3l-1.2-0.4l-0.9-0.4l-0.5-0.3l-0.3-0.3l-0.2-0.4l-0.4-0.8l-0.9-0.1l-0.3,0.1
	l-0.4,0.1l-0.3,0l-0.8-0.2l-0.3-0.2l-0.1-0.3l-0.2-0.4l-1.1-1.2l-0.1,0.5l0,0.4l-1,1.1l-1.8,0l-0.4-0.1l-2.7-1.4l-2.1-1.8l-0.1-0.6
	l-0.2-0.2l-1.6-0.7l0,0l0.3-0.2l0.7-0.7l1.5-1.6l0.2-0.4l0.1-0.5l0-0.6l-0.3-0.8l-0.6-1.5l0-0.5l0.3-0.4l0.6-0.3l1-0.8l0.9-2.3
	l0.5-1.5l0.2-0.4l0.6-0.7l0.5-0.3L58,281l0.8-0.8l0.3-0.6l0.1-0.8l0-0.5l0-0.6l0-0.5l0.1-0.9l0.8-1.7l0.3-0.3l0.3-0.4l0.3-1l0,0
	l0.4,0.2l0.3,0.2l0.8,1l0.5,0.7l2,0.8l1.5,0.4l2.2,0.1l2.2,0.4l-0.1-0.6l0-0.4l1.2-1l2.5-0.2h0.4l0.5,0.1l4,1.2l0.3,0.2l0.6,0.6
	l1.6,1.2l2.6,0.3l0.8,0.1l0.1,0l0,0l0,0.1l0,0.7l0,0.6l0.1,0.4l-0.1,0.8l-0.3,0.4l-1,0.5l-0.4,0.1l-0.5,0l-0.3,0.1l-0.3,0.5l0,0.5
	l0.2,0.5l0.3,0.2l1.6,1l0.4,2.6l-0.1,1.7l-0.2,0.4l0.1,0.6l0.5,1.1l0.4,1.3l-0.5,0.4l-0.4,0.7l-0.1,0.4l0.1,1.4l0.2,1.8l-0.4,1.1
	l-0.2,0.3l-0.4,0.2l-0.5,0l-1.2,0l-1.7,1.9l-0.2,1.3l0.3,0.8l-0.2,0.4l-3.5,1.3l-0.4-0.1L76.1,303.9z"/>
<path id="ARICA-PARINACOTA" class="st0" d="M105.4,21.7h-2.2l-1.4,1.4l-0.3,1.7L99.4,25l-2.2-1.7h-3.9L91,25l-2.2,1.4l-2.3,0.1l0,0
	l0-0.6l0.2-0.4l0-0.6l-0.7-4.1l-0.2-0.6l-0.2-2.9l0.1-0.9l0.4-2.1l-0.4-0.6l-0.4-0.4l-0.5-0.4L84.7,13l0.2-0.2l0.3-0.2l0.5-0.1
	l1.1,0.1l0.7,0l0.3,0l0.7-0.1l2-0.8l0.5-0.3l1.3-1.4l0.3-0.4l0.7-1.4l0.3-0.8l0.1-0.5l-0.6-2.3L93,4.6l-0.2-0.2l-0.2-0.3l0.1-0.6
	l0.2-0.4l0.3-0.4l0.6,0.1L95,2.9l2.6-2.3l0.2,1.9l1.6,1.4l0.3,0.3l0.4,0.8l0.1,0.4l0,1l0.1,0.5l0.1,0.4l0.2,0.3l2.2,0.7l0.9,0.1
	l0,0.4l-0.1,0.3L103,9.5l-0.3,0.3l-0.1,0.4l0.2,0.4l0.3,0.3l0.3,0.4l0.2,2.4l0.2,0.3l0.3,0.4l0.1,0.3l0.1,0.4l0,0.4l-0.1,0.8l0,0.8
	l0.1,0.7l0.3,1.3l0.7,1.5l0.3,0.5L105.4,21.7z"/>
<path id="LOS-RIOS" class="st0" d="M64.4,377.3l-2.6-0.4l-2.2,0.3l-1.1,1.7l-1.7,2l-2.8-1.1l-2.5-2.2l-2-1.4l-1.4-2.5l-2.2-0.8
	l-2.2,1.7l-1.4-0.3l-0.8-1.4l-4.3-0.4l0,0l0.3-1.7l1-1.2l-0.1-1.1l-0.1-0.5l-0.4-0.5l-0.2-0.4l0.3-0.5l0.2-0.2l2.7-1.3l1.2,0.2
	l0.4-0.6l0-2.2l1-2.7l0.2-0.4l0.5-1.3l0.4-1.5l-0.3-0.6l0,0l0.5,0.1l0.4,0.1l0.4,0l0.4,0l0.4-0.2l0.4-0.4l0.3-0.5l0.7-0.9l2.1,0
	l0.3,0.3l0.2,1l0.4,0.8l0.4,0.5l0.4,0.3l0.4,0.1l0.4,0l0.4,0l1.1-0.2l0.4,0l2.1,0.7l0.7,0.3l0.5,0.1l1.3-0.5l0.4-0.2l0.3-0.3
	l0.4-0.4l0.4-0.2l0.4-0.1l2.3,0.2l0.4,0.1l0.5,0.3l0.4,0.4l0.8,0.6l1,0l0.3,0l0.2,0.4l0.1,0.5l0,0.4l0,0l-0.1,0.1l-0.3,0.9l0,1.9
	l0.5,2.3l0.5,1.8l-0.5,1.8l-1.2,0.8l-0.6,0.5l-0.4,1.7L65,372l1,1l0.2-0.4l0.5,0.3l0.1,0.7l-0.5,1.3l-0.2,0.4l-0.3,0.1l-0.3-0.3
	l-0.3,0L64.4,377.3z"/>
<path id="BIOBIO" class="st0" d="M74.7,315.3l-0.4,0.1l-0.6-0.4l-0.4,0.1l-0.6,0.1l-0.6-0.2l-0.4-0.4l-0.4-0.1l-0.4-0.1l-0.2,0.3
	l-0.3,0l-0.5-0.3L70,314l-0.5-0.4l-0.4-0.3l-0.4,0.1v0.4v0.3v0.4l-0.2,0.4l0,0.6l-0.3-0.1l-0.5,0.1h-0.5l-0.4,0.3l-0.4-0.3l-0.4-0.1
	l-0.6-0.2l-0.5,0l-0.4,0.2l-0.2,0.6l-0.3,0.3l-0.6,0.2l-0.6,0h-0.4l-0.6-0.4h-0.2l-0.2,0.3h-0.3l-0.7-0.2l-0.6,0.4l-1-0.2l-0.5,0.2
	v-0.6v-0.6l0.1-0.6l0.5-0.2l0.6-0.6l-0.1-0.4l-0.3-0.1l-0.4-0.3h-0.6l-0.6-0.4l-0.8-1.2l-0.3,0.3l-0.8,0l-0.2-0.5H55l-0.2,0.5
	l-2.1-0.2l0.2-0.6l1.3,0.1l-0.2-0.4l0.3-0.5l-0.5-0.3l-0.2-0.9l0.1-0.4l-0.2-0.7l-0.8-0.8l-0.8-0.1l-0.3-0.7l-0.3-0.3l-0.4,0.2
	l-0.3-1l-0.2-0.6l0.3-0.4l-0.1-0.7h-0.7l-0.2-0.7v-0.2l-0.1,0.2l-0.6,1.7l-0.5,2l-0.3,1.3l-0.2,0.3l-0.3,0.1h-0.3l-0.4-0.1l-0.3-0.3
	l-0.5-0.2l-0.2,3.4l-0.3,3.2l-0.4,1.4L45,316l-0.3,0.5l-0.3,0.3l-0.6,0.3l-0.8,0.2l-0.4,0.1l-0.3,0l-0.6,0l-1.1-0.5l-0.4-0.2
	l-0.6-0.7l-0.6,0.4l-0.2,0.4l-0.5,2.6l0.2,0.3l0.4,0.3l0.3,0.4l0.3,0.6l0.1,0.7l-0.2,0.7l-0.4,0.4l-0.5,0.7l-0.2,0.5l0.3,2.2l0.9,1
	l1,1.7l0.6,1.5l0.3,0.9l0.2,0.7l-0.3,2.7l-0.2,0.4l-0.3,0.3l-0.2,0.5l0.2,0.9l0.1,0l0.3,0.1l0.4,0.2l1.2,0.8l3.7-3.7l0.2-0.5
	l0.1-0.3l0.1-0.5l-0.3-0.4l-0.5-0.3l-0.5-1.4l1.7-2.6l0.4-0.5l0.2-1.6l-0.2-0.4l-0.9-0.1l-0.3-0.4l1.3-1.6l1.9-0.3l0.6,0.3l0.6,0.4
	l0.5,0.3l1.9,0.5l1.2,0l0.9,1l0.4,1l0.9,1.3l0.7,0.4l0.3,0.1l0.5,0.1l0.5,0.1L59,329l1.2,1l0.2,0.4l0.5,0.6l0.3,0.2l2.1,0.4l1.8-0.2
	l0.4-0.1l0.5,0.2l0.5,0.7v0.7l-0.1,0.5l0,0.6l0.1,0.4l0.3,1.1l0.2,0.4l0.5,0.4l0.2-0.5l0.2-0.4l0.2-0.3l1.3-0.6l0.9-0.5l0.2-0.2
	l0.2-0.6l1.5-0.3l3.3-0.1l0.9,0.2l0-0.7l-1.4-3.4l-0.4-0.8l-0.2-0.8l-0.3-0.8l-0.3-0.9l0-0.7l0.1-0.6l0.3-0.3l0.5-0.4l0.2-2.3
	l-0.1-0.4l-0.4-0.5l-0.3-0.5l-0.4-1.4l0.2-0.6l0.5-0.6l0.3-0.8L74.7,315.3L74.7,315.3z"/>
<path id="UBLE" class="st0" d="M51,294.8l-0.2,0.3l-0.3,2.6l-0.3,3.6l-0.5,1.4v0.2l0.2,0.7h0.7l0.1,0.7l-0.3,0.4l0.2,0.6l0.3,1
	l0.4-0.2l0.3,0.3l0.3,0.7l0.8,0.1l0.8,0.8l0.2,0.7l-0.1,0.4l0.2,0.9l0.5,0.3l-0.3,0.5l0.2,0.4l-1.3-0.1l-0.2,0.6l2.1,0.2l0.2-0.5
	h0.4l0.2,0.5l0.8,0l0.3-0.3l0.8,1.2l0.6,0.4h0.6l0.4,0.3l0.3,0.1l0.1,0.4l-0.6,0.6l-0.5,0.2l-0.1,0.6v0.6v0.6l0.5-0.2l1,0.2l0.6-0.4
	l0.7,0.2h0.3l0.2-0.3h0.2l0.6,0.4h0.4l0.6,0l0.6-0.2l0.3-0.3l0.2-0.6l0.4-0.2l0.5,0l0.6,0.2l0.4,0.1l0.4,0.3l0.4-0.3h0.5l0.5-0.1
	l0.3,0.1l0-0.6l0.2-0.4v-0.4v-0.3v-0.4l0.4-0.1l0.4,0.3L70,314l0.1,0.4l0.5,0.3l0.3,0l0.2-0.3l0.4,0.1l0.4,0.1l0.4,0.4l0.6,0.2
	l0.6-0.1l0.4-0.1l0.6,0.4l0.4-0.1l0-0.1l-0.5-2.5l-0.5-2.3l0.7-1.8l1.2-3.4l0.3-1.1l0.3-0.1l-0.1,0l-0.4-0.5l-0.2-0.6l-0.1-0.5
	l-0.5-0.3l-0.3,0.1l-0.3,0.2l-1.1,1.4l-0.1,0.5l0,0.4l-0.4,0.5l-0.6-0.1l-1.4-0.8l-0.3-0.3l-1.5-1.3l-1.2-0.4l-0.9-0.4l-0.5-0.3
	l-0.3-0.3l-0.2-0.4l-0.4-0.8l-0.9-0.2l-0.3,0.1l-0.4,0.2l-0.3,0l-0.8-0.2l-0.3-0.2l-0.1-0.3l-0.2-0.4l-1.1-1.2l-0.1,0.5l0,0.4
	l-1,1.2l-1.8,0l-0.4-0.1l-2.7-1.4l-2.1-1.8l-0.1-0.6l-0.2-0.2L51,294.8L51,294.8z"/>
</svg>
